<?xml version="1.0" encoding="utf-8" ?>
<svg baseProfile="tiny" height="400" version="1.2" width="400" xmlns="http://www.w3.org/2000/svg" xmlns:ev="http://www.w3.org/2001/xml-events" xmlns:xlink="http://www.w3.org/1999/xlink"><defs /><line stroke="rgb(200,0,0)" stroke-linecap="round" stroke-width="4" x1="60.1746" x2="61.1698" y1="24.5962" y2="24.928" /><line stroke="rgb(200,0,0)" stroke-linecap="round" stroke-width="4" x1="61.1698" x2="65.8141" y1="24.928" y2="24.7621" /><line stroke="rgb(200,0,0)" stroke-linecap="round" stroke-width="4" x1="75.6002" x2="75.6002" y1="24.928" y2="17.464" /><line stroke="rgb(200,0,0)" stroke-linecap="round" stroke-width="4" x1="75.6002" x2="74.605" y1="17.464" y2="12.8197" /><line stroke="rgb(200,0,0)" stroke-linecap="round" stroke-width="4" x1="74.605" x2="73.7756" y1="12.8197" y2="10.4976" /><line stroke="rgb(200,0,0)" stroke-linecap="round" stroke-width="4" x1="73.7756" x2="73.278" y1="10.4976" y2="9.1707" /><line stroke="rgb(200,0,0)" stroke-linecap="round" stroke-width="4" x1="141.7809" x2="142.4443" y1="30.0698" y2="30.7333" /><line stroke="rgb(200,0,0)" stroke-linecap="round" stroke-width="4" x1="142.4443" x2="143.6054" y1="30.7333" y2="32.8896" /><line stroke="rgb(200,0,0)" stroke-linecap="round" stroke-width="4" x1="143.6054" x2="143.7713" y1="32.8896" y2="33.3872" /><line stroke="rgb(200,0,0)" stroke-linecap="round" stroke-width="4" x1="342.9769" x2="341.6499" y1="363.1296" y2="360.3099" /><line stroke="rgb(200,0,0)" stroke-linecap="round" stroke-width="4" x1="318.9262" x2="322.7412" y1="390.0" y2="387.6779" /><line stroke="rgb(200,0,0)" stroke-linecap="round" stroke-width="4" x1="322.7412" x2="325.8926" y1="387.6779" y2="385.6875" /><line stroke="rgb(200,0,0)" stroke-linecap="round" stroke-width="4" x1="325.8926" x2="326.2244" y1="385.6875" y2="385.3557" /><line stroke="rgb(200,0,0)" stroke-linecap="round" stroke-width="4" x1="326.2244" x2="326.3902" y1="385.3557" y2="384.6923" /><line stroke="rgb(200,0,0)" stroke-linecap="round" stroke-width="4" x1="326.3902" x2="326.2244" y1="384.6923" y2="384.1947" /><line stroke="rgb(200,0,0)" stroke-linecap="round" stroke-width="4" x1="326.2244" x2="325.8926" y1="384.1947" y2="383.3653" /><line stroke="rgb(200,0,0)" stroke-linecap="round" stroke-width="4" x1="325.8926" x2="325.0633" y1="383.3653" y2="382.2043" /><line stroke="rgb(200,0,0)" stroke-linecap="round" stroke-width="4" x1="325.0633" x2="322.7412" y1="382.2043" y2="378.2235" /><line stroke="rgb(200,0,0)" stroke-linecap="round" stroke-width="4" x1="322.7412" x2="320.5849" y1="378.2235" y2="374.5744" /><line stroke="rgb(200,0,0)" stroke-linecap="round" stroke-width="4" x1="215.2597" x2="218.7429" y1="170.227" y2="180.3448" /><line stroke="rgb(200,0,0)" stroke-linecap="round" stroke-width="4" x1="218.7429" x2="219.2405" y1="180.3448" y2="182.3352" /><line stroke="rgb(200,0,0)" stroke-linecap="round" stroke-width="4" x1="219.2405" x2="221.065" y1="182.3352" y2="188.1405" /><line stroke="rgb(200,0,0)" stroke-linecap="round" stroke-width="4" x1="221.065" x2="222.392" y1="188.1405" y2="190.4627" /><line stroke="rgb(200,0,0)" stroke-linecap="round" stroke-width="4" x1="222.392" x2="223.0554" y1="190.4627" y2="191.1261" /><line stroke="rgb(200,0,0)" stroke-linecap="round" stroke-width="4" x1="223.0554" x2="224.3824" y1="191.1261" y2="192.4531" /><line stroke="rgb(200,0,0)" stroke-linecap="round" stroke-width="4" x1="321.2484" x2="320.2532" y1="318.6774" y2="315.8577" /><line stroke="rgb(200,0,0)" stroke-linecap="round" stroke-width="4" x1="320.2532" x2="316.6041" y1="315.8577" y2="310.8817" /><line stroke="rgb(200,0,0)" stroke-linecap="round" stroke-width="4" x1="316.6041" x2="315.7748" y1="310.8817" y2="309.5548" /><line stroke="rgb(200,0,0)" stroke-linecap="round" stroke-width="4" x1="315.7748" x2="311.9598" y1="309.5548" y2="304.2471" /><line stroke="rgb(200,0,0)" stroke-linecap="round" stroke-width="4" x1="311.9598" x2="311.4622" y1="304.2471" y2="303.2519" /><line stroke="rgb(200,0,0)" stroke-linecap="round" stroke-width="4" x1="311.4622" x2="310.467" y1="303.2519" y2="298.9393" /><line stroke="rgb(200,0,0)" stroke-linecap="round" stroke-width="4" x1="310.467" x2="309.9694" y1="298.9393" y2="297.2807" /><line stroke="rgb(200,0,0)" stroke-linecap="round" stroke-width="4" x1="309.9694" x2="308.9742" y1="297.2807" y2="295.2903" /><line stroke="rgb(200,0,0)" stroke-linecap="round" stroke-width="4" x1="308.9742" x2="308.4766" y1="295.2903" y2="294.4609" /><line stroke="rgb(200,0,0)" stroke-linecap="round" stroke-width="4" x1="308.4766" x2="307.3156" y1="294.4609" y2="291.8071" /><line stroke="rgb(200,0,0)" stroke-linecap="round" stroke-width="4" x1="322.4094" x2="324.3998" y1="363.959" y2="363.6272" /><line stroke="rgb(200,0,0)" stroke-linecap="round" stroke-width="4" x1="324.3998" x2="326.3902" y1="363.6272" y2="363.7931" /><line stroke="rgb(200,0,0)" stroke-linecap="round" stroke-width="4" x1="326.3902" x2="330.2052" y1="363.7931" y2="364.2907" /><line stroke="rgb(200,0,0)" stroke-linecap="round" stroke-width="4" x1="330.2052" x2="334.5177" y1="364.2907" y2="364.7883" /><line stroke="rgb(200,0,0)" stroke-linecap="round" stroke-width="4" x1="334.5177" x2="336.1763" y1="364.7883" y2="364.7883" /><line stroke="rgb(200,0,0)" stroke-linecap="round" stroke-width="4" x1="336.1763" x2="337.6691" y1="364.7883" y2="364.6224" /><line stroke="rgb(200,0,0)" stroke-linecap="round" stroke-width="4" x1="337.6691" x2="338.9961" y1="364.6224" y2="364.4566" /><line stroke="rgb(200,0,0)" stroke-linecap="round" stroke-width="4" x1="338.9961" x2="339.8254" y1="364.4566" y2="364.2907" /><line stroke="rgb(200,0,0)" stroke-linecap="round" stroke-width="4" x1="312.4574" x2="310.6329" y1="375.2379" y2="376.399" /><line stroke="rgb(200,0,0)" stroke-linecap="round" stroke-width="4" x1="62.4967" x2="58.5159" y1="16.8005" y2="19.6203" /><line stroke="rgb(200,0,0)" stroke-linecap="round" stroke-width="4" x1="58.5159" x2="57.3549" y1="19.6203" y2="20.2837" /><line stroke="rgb(200,0,0)" stroke-linecap="round" stroke-width="4" x1="57.3549" x2="57.0231" y1="20.2837" y2="20.9472" /><line stroke="rgb(200,0,0)" stroke-linecap="round" stroke-width="4" x1="57.0231" x2="57.189" y1="20.9472" y2="21.6107" /><line stroke="rgb(200,0,0)" stroke-linecap="round" stroke-width="4" x1="57.189" x2="58.5159" y1="21.6107" y2="23.2693" /><line stroke="rgb(200,0,0)" stroke-linecap="round" stroke-width="4" x1="58.5159" x2="60.1746" y1="23.2693" y2="24.5962" /><line stroke="rgb(200,0,0)" stroke-linecap="round" stroke-width="4" x1="341.6499" x2="340.4889" y1="360.3099" y2="358.3195" /><line stroke="rgb(200,0,0)" stroke-linecap="round" stroke-width="4" x1="340.4889" x2="340.323" y1="358.3195" y2="357.9878" /><line stroke="rgb(200,0,0)" stroke-linecap="round" stroke-width="4" x1="340.323" x2="337.6691" y1="357.9878" y2="352.6801" /><line stroke="rgb(200,0,0)" stroke-linecap="round" stroke-width="4" x1="337.6691" x2="337.5033" y1="352.6801" y2="352.0166" /><line stroke="rgb(200,0,0)" stroke-linecap="round" stroke-width="4" x1="337.5033" x2="333.6883" y1="352.0166" y2="343.7233" /><line stroke="rgb(200,0,0)" stroke-linecap="round" stroke-width="4" x1="333.6883" x2="331.6979" y1="343.7233" y2="339.2449" /><line stroke="rgb(200,0,0)" stroke-linecap="round" stroke-width="4" x1="331.6979" x2="327.3854" y1="339.2449" y2="330.2881" /><line stroke="rgb(200,0,0)" stroke-linecap="round" stroke-width="4" x1="327.3854" x2="326.8878" y1="330.2881" y2="329.2929" /><line stroke="rgb(200,0,0)" stroke-linecap="round" stroke-width="4" x1="326.8878" x2="326.722" y1="329.2929" y2="328.9612" /><line stroke="rgb(200,0,0)" stroke-linecap="round" stroke-width="4" x1="326.722" x2="326.5561" y1="328.9612" y2="328.4636" /><line stroke="rgb(200,0,0)" stroke-linecap="round" stroke-width="4" x1="326.5561" x2="325.7268" y1="328.4636" y2="326.9708" /><line stroke="rgb(200,0,0)" stroke-linecap="round" stroke-width="4" x1="325.7268" x2="325.395" y1="326.9708" y2="326.1414" /><line stroke="rgb(200,0,0)" stroke-linecap="round" stroke-width="4" x1="325.395" x2="322.0777" y1="326.1414" y2="320.3361" /><line stroke="rgb(200,0,0)" stroke-linecap="round" stroke-width="4" x1="322.0777" x2="321.2484" y1="320.3361" y2="318.6774" /><line stroke="rgb(200,0,0)" stroke-linecap="round" stroke-width="4" x1="224.3824" x2="226.2069" y1="192.4531" y2="194.6093" /><line stroke="rgb(200,0,0)" stroke-linecap="round" stroke-width="4" x1="226.2069" x2="237.1541" y1="194.6093" y2="204.7272" /><line stroke="rgb(200,0,0)" stroke-linecap="round" stroke-width="4" x1="237.1541" x2="246.7743" y1="204.7272" y2="213.0205" /><line stroke="rgb(200,0,0)" stroke-linecap="round" stroke-width="4" x1="246.7743" x2="249.0965" y1="213.0205" y2="215.3426" /><line stroke="rgb(200,0,0)" stroke-linecap="round" stroke-width="4" x1="249.0965" x2="251.2527" y1="215.3426" y2="217.9965" /><line stroke="rgb(200,0,0)" stroke-linecap="round" stroke-width="4" x1="251.2527" x2="251.5845" y1="217.9965" y2="218.3282" /><line stroke="rgb(200,0,0)" stroke-linecap="round" stroke-width="4" x1="251.5845" x2="252.0821" y1="218.3282" y2="218.8258" /><line stroke="rgb(200,0,0)" stroke-linecap="round" stroke-width="4" x1="252.0821" x2="252.5797" y1="218.8258" y2="219.821" /><line stroke="rgb(200,0,0)" stroke-linecap="round" stroke-width="4" x1="252.5797" x2="252.9114" y1="219.821" y2="220.3186" /><line stroke="rgb(200,0,0)" stroke-linecap="round" stroke-width="4" x1="252.9114" x2="254.5701" y1="220.3186" y2="222.309" /><line stroke="rgb(200,0,0)" stroke-linecap="round" stroke-width="4" x1="254.5701" x2="256.5605" y1="222.309" y2="223.9677" /><line stroke="rgb(200,0,0)" stroke-linecap="round" stroke-width="4" x1="259.3802" x2="258.7167" y1="225.6264" y2="224.4653" /><line stroke="rgb(200,0,0)" stroke-linecap="round" stroke-width="4" x1="258.7167" x2="255.0677" y1="224.4653" y2="221.4797" /><line stroke="rgb(200,0,0)" stroke-linecap="round" stroke-width="4" x1="145.7617" x2="144.4347" y1="32.392" y2="31.2309" /><line stroke="rgb(200,0,0)" stroke-linecap="round" stroke-width="4" x1="144.4347" x2="143.4395" y1="31.2309" y2="30.4016" /><line stroke="rgb(200,0,0)" stroke-linecap="round" stroke-width="4" x1="143.4395" x2="142.6102" y1="30.4016" y2="30.0698" /><line stroke="rgb(200,0,0)" stroke-linecap="round" stroke-width="4" x1="142.6102" x2="141.7809" y1="30.0698" y2="30.0698" /><line stroke="rgb(200,0,0)" stroke-linecap="round" stroke-width="4" x1="143.7713" x2="144.9323" y1="33.3872" y2="32.8896" /><line stroke="rgb(200,0,0)" stroke-linecap="round" stroke-width="4" x1="144.9323" x2="145.7617" y1="32.8896" y2="32.392" /><line stroke="rgb(200,0,0)" stroke-linecap="round" stroke-width="4" x1="62.4967" x2="68.1362" y1="16.8005" y2="12.8197" /><line stroke="rgb(200,0,0)" stroke-linecap="round" stroke-width="4" x1="68.1362" x2="72.2828" y1="12.8197" y2="10.0" /><line stroke="rgb(200,0,0)" stroke-linecap="round" stroke-width="4" x1="72.2828" x2="73.278" y1="10.0" y2="9.1707" /><line stroke="rgb(200,0,0)" stroke-linecap="round" stroke-width="4" x1="277.9572" x2="278.4548" y1="241.8813" y2="242.3789" /><line stroke="rgb(200,0,0)" stroke-linecap="round" stroke-width="4" x1="278.4548" x2="279.45" y1="242.3789" y2="243.7058" /><line stroke="rgb(200,0,0)" stroke-linecap="round" stroke-width="4" x1="279.45" x2="280.777" y1="243.7058" y2="246.5255" /><line stroke="rgb(200,0,0)" stroke-linecap="round" stroke-width="4" x1="280.777" x2="281.6063" y1="246.5255" y2="247.8525" /><line stroke="rgb(200,0,0)" stroke-linecap="round" stroke-width="4" x1="281.6063" x2="283.0991" y1="247.8525" y2="250.3405" /><line stroke="rgb(200,0,0)" stroke-linecap="round" stroke-width="4" x1="283.0991" x2="283.2649" y1="250.3405" y2="250.6722" /><line stroke="rgb(200,0,0)" stroke-linecap="round" stroke-width="4" x1="283.2649" x2="286.5823" y1="250.6722" y2="256.1458" /><line stroke="rgb(200,0,0)" stroke-linecap="round" stroke-width="4" x1="286.5823" x2="290.0655" y1="256.1458" y2="262.4487" /><line stroke="rgb(200,0,0)" stroke-linecap="round" stroke-width="4" x1="290.0655" x2="293.5487" y1="262.4487" y2="268.7516" /><line stroke="rgb(200,0,0)" stroke-linecap="round" stroke-width="4" x1="293.5487" x2="295.8708" y1="268.7516" y2="272.8983" /><line stroke="rgb(200,0,0)" stroke-linecap="round" stroke-width="4" x1="295.8708" x2="298.1929" y1="272.8983" y2="277.045" /><line stroke="rgb(200,0,0)" stroke-linecap="round" stroke-width="4" x1="298.1929" x2="302.5055" y1="277.045" y2="284.1772" /><line stroke="rgb(200,0,0)" stroke-linecap="round" stroke-width="4" x1="302.5055" x2="304.33" y1="284.1772" y2="287.4945" /><line stroke="rgb(200,0,0)" stroke-linecap="round" stroke-width="4" x1="304.33" x2="307.3156" y1="287.4945" y2="291.8071" /><line stroke="rgb(200,0,0)" stroke-linecap="round" stroke-width="4" x1="259.3802" x2="260.7071" y1="225.6264" y2="226.6216" /><line stroke="rgb(200,0,0)" stroke-linecap="round" stroke-width="4" x1="260.7071" x2="264.3562" y1="226.6216" y2="229.6072" /><line stroke="rgb(200,0,0)" stroke-linecap="round" stroke-width="4" x1="145.7617" x2="146.0934" y1="32.392" y2="33.8848" /><line stroke="rgb(200,0,0)" stroke-linecap="round" stroke-width="4" x1="308.1449" x2="310.6329" y1="371.7547" y2="376.399" /><line stroke="rgb(200,0,0)" stroke-linecap="round" stroke-width="4" x1="310.6329" x2="313.1209" y1="376.399" y2="380.3797" /><line stroke="rgb(200,0,0)" stroke-linecap="round" stroke-width="4" x1="313.1209" x2="313.4526" y1="380.3797" y2="380.8773" /><line stroke="rgb(200,0,0)" stroke-linecap="round" stroke-width="4" x1="313.4526" x2="314.7796" y1="380.8773" y2="383.0336" /><line stroke="rgb(200,0,0)" stroke-linecap="round" stroke-width="4" x1="314.7796" x2="316.77" y1="383.0336" y2="386.5168" /><line stroke="rgb(200,0,0)" stroke-linecap="round" stroke-width="4" x1="316.77" x2="318.9262" y1="386.5168" y2="390.0" /><line stroke="rgb(200,0,0)" stroke-linecap="round" stroke-width="4" x1="308.1449" x2="311.9598" y1="371.7547" y2="369.4326" /><line stroke="rgb(200,0,0)" stroke-linecap="round" stroke-width="4" x1="311.9598" x2="315.1113" y1="369.4326" y2="367.4422" /><line stroke="rgb(200,0,0)" stroke-linecap="round" stroke-width="4" x1="315.1113" x2="318.2628" y1="367.4422" y2="365.7835" /><line stroke="rgb(200,0,0)" stroke-linecap="round" stroke-width="4" x1="318.2628" x2="322.4094" y1="365.7835" y2="363.959" /><line stroke="rgb(200,0,0)" stroke-linecap="round" stroke-width="4" x1="339.8254" x2="342.9769" y1="364.2907" y2="363.1296" /><line stroke="rgb(200,0,0)" stroke-linecap="round" stroke-width="4" x1="264.3562" x2="266.5124" y1="229.6072" y2="231.5976" /><line stroke="rgb(200,0,0)" stroke-linecap="round" stroke-width="4" x1="266.5124" x2="267.5076" y1="231.5976" y2="232.4269" /><line stroke="rgb(200,0,0)" stroke-linecap="round" stroke-width="4" x1="267.5076" x2="275.6351" y1="232.4269" y2="239.3933" /><line stroke="rgb(200,0,0)" stroke-linecap="round" stroke-width="4" x1="275.6351" x2="277.9572" y1="239.3933" y2="241.8813" /><line stroke="rgb(200,0,0)" stroke-linecap="round" stroke-width="4" x1="320.5849" x2="319.5897" y1="374.5744" y2="372.7499" /><line stroke="rgb(200,0,0)" stroke-linecap="round" stroke-width="4" x1="319.5897" x2="319.0921" y1="372.7499" y2="372.2523" /><line stroke="rgb(200,0,0)" stroke-linecap="round" stroke-width="4" x1="319.0921" x2="318.4286" y1="372.2523" y2="372.0864" /><line stroke="rgb(200,0,0)" stroke-linecap="round" stroke-width="4" x1="318.4286" x2="317.7652" y1="372.0864" y2="372.0864" /><line stroke="rgb(200,0,0)" stroke-linecap="round" stroke-width="4" x1="317.7652" x2="317.2676" y1="372.0864" y2="372.2523" /><line stroke="rgb(200,0,0)" stroke-linecap="round" stroke-width="4" x1="317.2676" x2="315.1113" y1="372.2523" y2="373.7451" /><line stroke="rgb(200,0,0)" stroke-linecap="round" stroke-width="4" x1="315.1113" x2="312.4574" y1="373.7451" y2="375.2379" /><line stroke="rgb(200,0,0)" stroke-linecap="round" stroke-width="4" x1="256.5605" x2="257.8874" y1="223.9677" y2="224.9629" /><line stroke="rgb(200,0,0)" stroke-linecap="round" stroke-width="4" x1="257.8874" x2="259.3802" y1="224.9629" y2="225.6264" /><line stroke="rgb(200,0,0)" stroke-linecap="round" stroke-width="4" x1="146.0934" x2="148.0838" y1="33.8848" y2="38.0314" /><line stroke="rgb(200,0,0)" stroke-linecap="round" stroke-width="4" x1="148.0838" x2="148.9131" y1="38.0314" y2="40.0218" /><line stroke="rgb(200,0,0)" stroke-linecap="round" stroke-width="4" x1="148.9131" x2="150.9035" y1="40.0218" y2="44.5002" /><line stroke="rgb(200,0,0)" stroke-linecap="round" stroke-width="4" x1="150.9035" x2="152.5622" y1="44.5002" y2="48.9786" /><line stroke="rgb(200,0,0)" stroke-linecap="round" stroke-width="4" x1="152.5622" x2="154.055" y1="48.9786" y2="53.2911" /><line stroke="rgb(200,0,0)" stroke-linecap="round" stroke-width="4" x1="154.055" x2="156.2113" y1="53.2911" y2="59.5941" /><line stroke="rgb(200,0,0)" stroke-linecap="round" stroke-width="4" x1="156.2113" x2="162.0166" y1="59.5941" y2="71.7023" /><line stroke="rgb(200,0,0)" stroke-linecap="round" stroke-width="4" x1="162.0166" x2="165.168" y1="71.7023" y2="78.1711" /><line stroke="rgb(200,0,0)" stroke-linecap="round" stroke-width="4" x1="165.168" x2="165.8315" y1="78.1711" y2="79.6639" /><line stroke="rgb(200,0,0)" stroke-linecap="round" stroke-width="4" x1="165.8315" x2="167.9878" y1="79.6639" y2="83.9764" /><line stroke="rgb(200,0,0)" stroke-linecap="round" stroke-width="4" x1="167.9878" x2="168.3195" y1="83.9764" y2="84.8058" /><line stroke="rgb(200,0,0)" stroke-linecap="round" stroke-width="4" x1="168.3195" x2="169.3147" y1="84.8058" y2="86.1327" /><line stroke="rgb(200,0,0)" stroke-linecap="round" stroke-width="4" x1="169.3147" x2="171.9686" y1="86.1327" y2="88.9524" /><line stroke="rgb(200,0,0)" stroke-linecap="round" stroke-width="4" x1="171.9686" x2="172.4662" y1="88.9524" y2="89.6159" /><line stroke="rgb(200,0,0)" stroke-linecap="round" stroke-width="4" x1="172.4662" x2="173.6272" y1="89.6159" y2="90.777" /><line stroke="rgb(200,0,0)" stroke-linecap="round" stroke-width="4" x1="173.6272" x2="174.7883" y1="90.777" y2="91.938" /><line stroke="rgb(200,0,0)" stroke-linecap="round" stroke-width="4" x1="174.7883" x2="176.1152" y1="91.938" y2="93.5967" /><line stroke="rgb(200,0,0)" stroke-linecap="round" stroke-width="4" x1="176.1152" x2="176.9446" y1="93.5967" y2="94.9236" /><line stroke="rgb(200,0,0)" stroke-linecap="round" stroke-width="4" x1="176.9446" x2="178.2715" y1="94.9236" y2="97.5775" /><line stroke="rgb(200,0,0)" stroke-linecap="round" stroke-width="4" x1="178.2715" x2="186.0672" y1="97.5775" y2="113.6665" /><line stroke="rgb(200,0,0)" stroke-linecap="round" stroke-width="4" x1="186.0672" x2="186.2331" y1="113.6665" y2="114.1641" /><line stroke="rgb(200,0,0)" stroke-linecap="round" stroke-width="4" x1="186.2331" x2="187.3942" y1="114.1641" y2="116.4863" /><line stroke="rgb(200,0,0)" stroke-linecap="round" stroke-width="4" x1="187.3942" x2="188.8869" y1="116.4863" y2="119.6377" /><line stroke="rgb(200,0,0)" stroke-linecap="round" stroke-width="4" x1="188.8869" x2="190.3797" y1="119.6377" y2="122.6233" /><line stroke="rgb(200,0,0)" stroke-linecap="round" stroke-width="4" x1="190.3797" x2="191.7067" y1="122.6233" y2="125.443" /><line stroke="rgb(200,0,0)" stroke-linecap="round" stroke-width="4" x1="191.7067" x2="195.5216" y1="125.443" y2="132.4094" /><line stroke="rgb(200,0,0)" stroke-linecap="round" stroke-width="4" x1="195.5216" x2="198.6731" y1="132.4094" y2="137.7172" /><line stroke="rgb(200,0,0)" stroke-linecap="round" stroke-width="4" x1="198.6731" x2="201.9904" y1="137.7172" y2="143.8542" /><line stroke="rgb(200,0,0)" stroke-linecap="round" stroke-width="4" x1="201.9904" x2="202.9856" y1="143.8542" y2="145.5129" /><line stroke="rgb(200,0,0)" stroke-linecap="round" stroke-width="4" x1="202.9856" x2="203.6491" y1="145.5129" y2="146.6739" /><line stroke="rgb(200,0,0)" stroke-linecap="round" stroke-width="4" x1="203.6491" x2="204.4784" y1="146.6739" y2="148.3326" /><line stroke="rgb(200,0,0)" stroke-linecap="round" stroke-width="4" x1="204.4784" x2="205.8053" y1="148.3326" y2="150.8206" /><line stroke="rgb(200,0,0)" stroke-linecap="round" stroke-width="4" x1="205.8053" x2="207.2981" y1="150.8206" y2="153.6403" /><line stroke="rgb(200,0,0)" stroke-linecap="round" stroke-width="4" x1="207.2981" x2="209.7861" y1="153.6403" y2="158.2846" /><line stroke="rgb(200,0,0)" stroke-linecap="round" stroke-width="4" x1="209.7861" x2="210.6155" y1="158.2846" y2="160.1091" /><line stroke="rgb(200,0,0)" stroke-linecap="round" stroke-width="4" x1="210.6155" x2="213.9328" y1="160.1091" y2="167.0755" /><line stroke="rgb(200,0,0)" stroke-linecap="round" stroke-width="4" x1="213.9328" x2="215.2597" y1="167.0755" y2="170.227" /><line stroke="rgb(200,0,0)" stroke-linecap="round" stroke-width="4" x1="255.0677" x2="253.0773" y1="221.4797" y2="219.821" /><line stroke="rgb(200,0,0)" stroke-linecap="round" stroke-width="4" x1="253.0773" x2="252.0821" y1="219.821" y2="218.8258" /><line stroke="rgb(200,0,0)" stroke-linecap="round" stroke-width="4" x1="75.6002" x2="80.0786" y1="24.928" y2="24.7621" /><line stroke="rgb(200,0,0)" stroke-linecap="round" stroke-width="4" x1="80.0786" x2="96.4993" y1="24.7621" y2="24.928" /><line stroke="rgb(200,0,0)" stroke-linecap="round" stroke-width="4" x1="96.4993" x2="104.6268" y1="24.928" y2="24.928" /><line stroke="rgb(200,0,0)" stroke-linecap="round" stroke-width="4" x1="104.6268" x2="107.1148" y1="24.928" y2="25.0938" /><line stroke="rgb(200,0,0)" stroke-linecap="round" stroke-width="4" x1="107.1148" x2="116.5692" y1="25.0938" y2="26.2549" /><line stroke="rgb(200,0,0)" stroke-linecap="round" stroke-width="4" x1="116.5692" x2="120.55" y1="26.2549" y2="26.5866" /><line stroke="rgb(200,0,0)" stroke-linecap="round" stroke-width="4" x1="120.55" x2="121.8769" y1="26.5866" y2="26.7525" /><line stroke="rgb(200,0,0)" stroke-linecap="round" stroke-width="4" x1="121.8769" x2="127.8481" y1="26.7525" y2="27.416" /><line stroke="rgb(200,0,0)" stroke-linecap="round" stroke-width="4" x1="127.8481" x2="131.663" y1="27.416" y2="27.9136" /><line stroke="rgb(200,0,0)" stroke-linecap="round" stroke-width="4" x1="131.663" x2="138.9612" y1="27.9136" y2="29.4064" /><line stroke="rgb(200,0,0)" stroke-linecap="round" stroke-width="4" x1="138.9612" x2="141.2833" y1="29.4064" y2="29.904" /><line stroke="rgb(200,0,0)" stroke-linecap="round" stroke-width="4" x1="141.2833" x2="141.7809" y1="29.904" y2="30.0698" /><line stroke="rgb(200,0,0)" stroke-linecap="round" stroke-width="4" x1="75.6002" x2="74.1074" y1="24.928" y2="24.928" /><line stroke="rgb(200,0,0)" stroke-linecap="round" stroke-width="4" x1="74.1074" x2="65.8141" y1="24.928" y2="24.7621" /></svg>