<?xml version="1.0" encoding="utf-8" ?>
<svg baseProfile="tiny" height="400" version="1.2" width="400" xmlns="http://www.w3.org/2000/svg" xmlns:ev="http://www.w3.org/2001/xml-events" xmlns:xlink="http://www.w3.org/1999/xlink"><defs /><line stroke="rgb(200,0,0)" stroke-linecap="round" stroke-width="4" x1="223.364" x2="229.5406" y1="59.682" y2="61.5618" /><line stroke="rgb(200,0,0)" stroke-linecap="round" stroke-width="4" x1="111.1095" x2="112.7208" y1="50.8198" y2="47.5972" /><line stroke="rgb(200,0,0)" stroke-linecap="round" stroke-width="4" x1="112.7208" x2="114.8693" y1="47.5972" y2="38.735" /><line stroke="rgb(200,0,0)" stroke-linecap="round" stroke-width="4" x1="114.8693" x2="115.1378" y1="38.735" y2="37.1237" /><line stroke="rgb(200,0,0)" stroke-linecap="round" stroke-width="4" x1="115.1378" x2="117.0177" y1="37.1237" y2="33.0954" /><line stroke="rgb(200,0,0)" stroke-linecap="round" stroke-width="4" x1="95.5336" x2="94.9965" y1="82.2403" y2="80.8975" /><line stroke="rgb(200,0,0)" stroke-linecap="round" stroke-width="4" x1="94.9965" x2="95.265" y1="80.8975" y2="72.5724" /><line stroke="rgb(200,0,0)" stroke-linecap="round" stroke-width="4" x1="95.265" x2="97.4134" y1="72.5724" y2="67.47" /><line stroke="rgb(200,0,0)" stroke-linecap="round" stroke-width="4" x1="97.4134" x2="99.8304" y1="67.47" y2="64.5159" /><line stroke="rgb(200,0,0)" stroke-linecap="round" stroke-width="4" x1="99.8304" x2="101.1731" y1="64.5159" y2="62.636" /><line stroke="rgb(200,0,0)" stroke-linecap="round" stroke-width="4" x1="101.1731" x2="102.5159" y1="62.636" y2="61.0247" /><line stroke="rgb(200,0,0)" stroke-linecap="round" stroke-width="4" x1="252.0989" x2="250.2191" y1="333.3357" y2="331.9929" /><line stroke="rgb(200,0,0)" stroke-linecap="round" stroke-width="4" x1="250.2191" x2="248.0707" y1="331.9929" y2="330.1131" /><line stroke="rgb(200,0,0)" stroke-linecap="round" stroke-width="4" x1="248.0707" x2="246.7279" y1="330.1131" y2="328.2332" /><line stroke="rgb(200,0,0)" stroke-linecap="round" stroke-width="4" x1="246.7279" x2="245.3852" y1="328.2332" y2="326.0848" /><line stroke="rgb(200,0,0)" stroke-linecap="round" stroke-width="4" x1="245.3852" x2="244.8481" y1="326.0848" y2="324.742" /><line stroke="rgb(200,0,0)" stroke-linecap="round" stroke-width="4" x1="244.8481" x2="244.311" y1="324.742" y2="323.3993" /><line stroke="rgb(200,0,0)" stroke-linecap="round" stroke-width="4" x1="244.311" x2="244.0424" y1="323.3993" y2="320.1767" /><line stroke="rgb(200,0,0)" stroke-linecap="round" stroke-width="4" x1="244.0424" x2="243.7739" y1="320.1767" y2="316.9541" /><line stroke="rgb(200,0,0)" stroke-linecap="round" stroke-width="4" x1="243.7739" x2="243.2367" y1="316.9541" y2="312.3887" /><line stroke="rgb(200,0,0)" stroke-linecap="round" stroke-width="4" x1="243.2367" x2="242.9682" y1="312.3887" y2="310.7774" /><line stroke="rgb(200,0,0)" stroke-linecap="round" stroke-width="4" x1="242.9682" x2="242.4311" y1="310.7774" y2="309.9717" /><line stroke="rgb(200,0,0)" stroke-linecap="round" stroke-width="4" x1="242.4311" x2="241.894" y1="309.9717" y2="309.1661" /><line stroke="rgb(200,0,0)" stroke-linecap="round" stroke-width="4" x1="227.9293" x2="228.735" y1="377.3781" y2="376.0353" /><line stroke="rgb(200,0,0)" stroke-linecap="round" stroke-width="4" x1="228.735" x2="233.8375" y1="376.0353" y2="367.9788" /><line stroke="rgb(200,0,0)" stroke-linecap="round" stroke-width="4" x1="233.8375" x2="236.2544" y1="367.9788" y2="363.9505" /><line stroke="rgb(200,0,0)" stroke-linecap="round" stroke-width="4" x1="236.2544" x2="238.9399" y1="363.9505" y2="359.6537" /><line stroke="rgb(200,0,0)" stroke-linecap="round" stroke-width="4" x1="238.9399" x2="244.0424" y1="359.6537" y2="351.8657" /><line stroke="rgb(200,0,0)" stroke-linecap="round" stroke-width="4" x1="244.0424" x2="246.9965" y1="351.8657" y2="346.4947" /><line stroke="rgb(200,0,0)" stroke-linecap="round" stroke-width="4" x1="246.9965" x2="248.8763" y1="346.4947" y2="342.1979" /><line stroke="rgb(200,0,0)" stroke-linecap="round" stroke-width="4" x1="248.8763" x2="250.2191" y1="342.1979" y2="338.9753" /><line stroke="rgb(200,0,0)" stroke-linecap="round" stroke-width="4" x1="250.2191" x2="251.2933" y1="338.9753" y2="335.2155" /><line stroke="rgb(200,0,0)" stroke-linecap="round" stroke-width="4" x1="251.2933" x2="252.0989" y1="335.2155" y2="333.3357" /><line stroke="rgb(200,0,0)" stroke-linecap="round" stroke-width="4" x1="175.0247" x2="179.3216" y1="91.9081" y2="89.7597" /><line stroke="rgb(200,0,0)" stroke-linecap="round" stroke-width="4" x1="179.3216" x2="182.0071" y1="89.7597" y2="88.417" /><line stroke="rgb(200,0,0)" stroke-linecap="round" stroke-width="4" x1="182.0071" x2="186.0353" y1="88.417" y2="87.0742" /><line stroke="rgb(200,0,0)" stroke-linecap="round" stroke-width="4" x1="186.0353" x2="186.3039" y1="87.0742" y2="87.0742" /><line stroke="rgb(200,0,0)" stroke-linecap="round" stroke-width="4" x1="186.3039" x2="197.8516" y1="87.0742" y2="83.583" /><line stroke="rgb(200,0,0)" stroke-linecap="round" stroke-width="4" x1="102.5159" x2="107.6184" y1="61.0247" y2="55.1166" /><line stroke="rgb(200,0,0)" stroke-linecap="round" stroke-width="4" x1="107.6184" x2="108.6926" y1="55.1166" y2="54.0424" /><line stroke="rgb(200,0,0)" stroke-linecap="round" stroke-width="4" x1="108.6926" x2="111.1095" y1="54.0424" y2="50.8198" /><line stroke="rgb(200,0,0)" stroke-linecap="round" stroke-width="4" x1="172.0707" x2="171.8021" y1="88.417" y2="91.9081" /><line stroke="rgb(200,0,0)" stroke-linecap="round" stroke-width="4" x1="171.8021" x2="170.7279" y1="91.9081" y2="94.3251" /><line stroke="rgb(200,0,0)" stroke-linecap="round" stroke-width="4" x1="170.7279" x2="173.1449" y1="94.3251" y2="92.9823" /><line stroke="rgb(200,0,0)" stroke-linecap="round" stroke-width="4" x1="173.1449" x2="175.0247" y1="92.9823" y2="91.9081" /><line stroke="rgb(200,0,0)" stroke-linecap="round" stroke-width="4" x1="229.5406" x2="234.6431" y1="61.5618" y2="63.4417" /><line stroke="rgb(200,0,0)" stroke-linecap="round" stroke-width="4" x1="234.6431" x2="239.477" y1="63.4417" y2="65.3216" /><line stroke="rgb(200,0,0)" stroke-linecap="round" stroke-width="4" x1="239.477" x2="243.2367" y1="65.3216" y2="67.2014" /><line stroke="rgb(200,0,0)" stroke-linecap="round" stroke-width="4" x1="243.2367" x2="247.8021" y1="67.2014" y2="69.3498" /><line stroke="rgb(200,0,0)" stroke-linecap="round" stroke-width="4" x1="247.8021" x2="252.3675" y1="69.3498" y2="72.0353" /><line stroke="rgb(200,0,0)" stroke-linecap="round" stroke-width="4" x1="252.3675" x2="256.9329" y1="72.0353" y2="74.4523" /><line stroke="rgb(200,0,0)" stroke-linecap="round" stroke-width="4" x1="256.9329" x2="261.2297" y1="74.4523" y2="77.1378" /><line stroke="rgb(200,0,0)" stroke-linecap="round" stroke-width="4" x1="261.2297" x2="263.1095" y1="77.1378" y2="78.4806" /><line stroke="rgb(200,0,0)" stroke-linecap="round" stroke-width="4" x1="263.1095" x2="264.1837" y1="78.4806" y2="79.2862" /><line stroke="rgb(200,0,0)" stroke-linecap="round" stroke-width="4" x1="264.1837" x2="264.1837" y1="79.2862" y2="79.2862" /><line stroke="rgb(200,0,0)" stroke-linecap="round" stroke-width="4" x1="264.1837" x2="269.8233" y1="79.2862" y2="83.8516" /><line stroke="rgb(200,0,0)" stroke-linecap="round" stroke-width="4" x1="269.8233" x2="275.7314" y1="83.8516" y2="88.9541" /><line stroke="rgb(200,0,0)" stroke-linecap="round" stroke-width="4" x1="275.7314" x2="280.8339" y1="88.9541" y2="93.5194" /><line stroke="rgb(200,0,0)" stroke-linecap="round" stroke-width="4" x1="230.0777" x2="229.0035" y1="96.742" y2="95.9364" /><line stroke="rgb(200,0,0)" stroke-linecap="round" stroke-width="4" x1="229.0035" x2="228.1979" y1="95.9364" y2="95.3993" /><line stroke="rgb(200,0,0)" stroke-linecap="round" stroke-width="4" x1="228.1979" x2="227.1237" y1="95.3993" y2="94.3251" /><line stroke="rgb(200,0,0)" stroke-linecap="round" stroke-width="4" x1="227.1237" x2="223.9011" y1="94.3251" y2="88.9541" /><line stroke="rgb(200,0,0)" stroke-linecap="round" stroke-width="4" x1="223.9011" x2="222.2898" y1="88.9541" y2="87.3428" /><line stroke="rgb(200,0,0)" stroke-linecap="round" stroke-width="4" x1="222.2898" x2="220.947" y1="87.3428" y2="85.7314" /><line stroke="rgb(200,0,0)" stroke-linecap="round" stroke-width="4" x1="220.947" x2="219.0671" y1="85.7314" y2="84.9258" /><line stroke="rgb(200,0,0)" stroke-linecap="round" stroke-width="4" x1="219.0671" x2="217.1873" y1="84.9258" y2="84.1201" /><line stroke="rgb(200,0,0)" stroke-linecap="round" stroke-width="4" x1="217.1873" x2="216.9187" y1="84.1201" y2="84.1201" /><line stroke="rgb(200,0,0)" stroke-linecap="round" stroke-width="4" x1="216.9187" x2="213.159" y1="84.1201" y2="83.3145" /><line stroke="rgb(200,0,0)" stroke-linecap="round" stroke-width="4" x1="213.159" x2="210.2049" y1="83.3145" y2="82.7774" /><line stroke="rgb(200,0,0)" stroke-linecap="round" stroke-width="4" x1="210.2049" x2="207.5194" y1="82.7774" y2="82.5088" /><line stroke="rgb(200,0,0)" stroke-linecap="round" stroke-width="4" x1="207.5194" x2="205.6396" y1="82.5088" y2="82.2403" /><line stroke="rgb(200,0,0)" stroke-linecap="round" stroke-width="4" x1="205.6396" x2="203.7597" y1="82.2403" y2="82.2403" /><line stroke="rgb(200,0,0)" stroke-linecap="round" stroke-width="4" x1="117.0177" x2="118.0919" y1="33.0954" y2="30.947" /><line stroke="rgb(200,0,0)" stroke-linecap="round" stroke-width="4" x1="118.0919" x2="120.2403" y1="30.947" y2="28.2615" /><line stroke="rgb(200,0,0)" stroke-linecap="round" stroke-width="4" x1="120.2403" x2="122.6572" y1="28.2615" y2="24.7703" /><line stroke="rgb(200,0,0)" stroke-linecap="round" stroke-width="4" x1="185.7668" x2="184.424" y1="151.5265" y2="149.6466" /><line stroke="rgb(200,0,0)" stroke-linecap="round" stroke-width="4" x1="184.424" x2="183.0813" y1="149.6466" y2="148.0353" /><line stroke="rgb(200,0,0)" stroke-linecap="round" stroke-width="4" x1="183.0813" x2="182.2756" y1="148.0353" y2="146.9611" /><line stroke="rgb(200,0,0)" stroke-linecap="round" stroke-width="4" x1="182.2756" x2="181.2014" y1="146.9611" y2="145.6184" /><line stroke="rgb(200,0,0)" stroke-linecap="round" stroke-width="4" x1="181.2014" x2="180.9329" y1="145.6184" y2="145.6184" /><line stroke="rgb(200,0,0)" stroke-linecap="round" stroke-width="4" x1="180.9329" x2="180.1272" y1="145.6184" y2="144.8127" /><line stroke="rgb(200,0,0)" stroke-linecap="round" stroke-width="4" x1="180.1272" x2="177.7102" y1="144.8127" y2="142.9329" /><line stroke="rgb(200,0,0)" stroke-linecap="round" stroke-width="4" x1="177.7102" x2="175.2933" y1="142.9329" y2="141.5901" /><line stroke="rgb(200,0,0)" stroke-linecap="round" stroke-width="4" x1="175.2933" x2="172.3392" y1="141.5901" y2="140.2473" /><line stroke="rgb(200,0,0)" stroke-linecap="round" stroke-width="4" x1="172.3392" x2="169.6537" y1="140.2473" y2="139.1731" /><line stroke="rgb(200,0,0)" stroke-linecap="round" stroke-width="4" x1="169.6537" x2="167.2367" y1="139.1731" y2="138.3675" /><line stroke="rgb(200,0,0)" stroke-linecap="round" stroke-width="4" x1="167.2367" x2="164.0141" y1="138.3675" y2="137.2933" /><line stroke="rgb(200,0,0)" stroke-linecap="round" stroke-width="4" x1="164.0141" x2="161.5972" y1="137.2933" y2="136.4876" /><line stroke="rgb(200,0,0)" stroke-linecap="round" stroke-width="4" x1="161.5972" x2="159.9859" y1="136.4876" y2="135.9505" /><line stroke="rgb(200,0,0)" stroke-linecap="round" stroke-width="4" x1="159.9859" x2="158.6431" y1="135.9505" y2="135.1449" /><line stroke="rgb(200,0,0)" stroke-linecap="round" stroke-width="4" x1="158.6431" x2="156.7633" y1="135.1449" y2="133.8021" /><line stroke="rgb(200,0,0)" stroke-linecap="round" stroke-width="4" x1="156.7633" x2="155.1519" y1="133.8021" y2="132.4594" /><line stroke="rgb(200,0,0)" stroke-linecap="round" stroke-width="4" x1="155.1519" x2="153.5406" y1="132.4594" y2="130.8481" /><line stroke="rgb(200,0,0)" stroke-linecap="round" stroke-width="4" x1="153.5406" x2="151.9293" y1="130.8481" y2="128.9682" /><line stroke="rgb(200,0,0)" stroke-linecap="round" stroke-width="4" x1="151.9293" x2="150.8551" y1="128.9682" y2="127.3569" /><line stroke="rgb(200,0,0)" stroke-linecap="round" stroke-width="4" x1="150.8551" x2="150.0495" y1="127.3569" y2="125.7456" /><line stroke="rgb(200,0,0)" stroke-linecap="round" stroke-width="4" x1="150.0495" x2="149.2438" y1="125.7456" y2="123.5972" /><line stroke="rgb(200,0,0)" stroke-linecap="round" stroke-width="4" x1="149.2438" x2="148.7067" y1="123.5972" y2="121.1802" /><line stroke="rgb(200,0,0)" stroke-linecap="round" stroke-width="4" x1="148.7067" x2="148.4382" y1="121.1802" y2="119.3004" /><line stroke="rgb(200,0,0)" stroke-linecap="round" stroke-width="4" x1="148.4382" x2="148.7067" y1="119.3004" y2="117.4205" /><line stroke="rgb(200,0,0)" stroke-linecap="round" stroke-width="4" x1="148.7067" x2="148.9753" y1="117.4205" y2="115.0035" /><line stroke="rgb(200,0,0)" stroke-linecap="round" stroke-width="4" x1="148.9753" x2="150.0495" y1="115.0035" y2="112.0495" /><line stroke="rgb(200,0,0)" stroke-linecap="round" stroke-width="4" x1="150.0495" x2="151.1237" y1="112.0495" y2="109.9011" /><line stroke="rgb(200,0,0)" stroke-linecap="round" stroke-width="4" x1="151.1237" x2="152.735" y1="109.9011" y2="107.4841" /><line stroke="rgb(200,0,0)" stroke-linecap="round" stroke-width="4" x1="152.735" x2="154.3463" y1="107.4841" y2="105.3357" /><line stroke="rgb(200,0,0)" stroke-linecap="round" stroke-width="4" x1="154.3463" x2="156.7633" y1="105.3357" y2="103.1873" /><line stroke="rgb(200,0,0)" stroke-linecap="round" stroke-width="4" x1="156.7633" x2="159.1802" y1="103.1873" y2="100.7703" /><line stroke="rgb(200,0,0)" stroke-linecap="round" stroke-width="4" x1="159.1802" x2="160.7915" y1="100.7703" y2="99.6961" /><line stroke="rgb(200,0,0)" stroke-linecap="round" stroke-width="4" x1="160.7915" x2="161.8657" y1="99.6961" y2="98.8905" /><line stroke="rgb(200,0,0)" stroke-linecap="round" stroke-width="4" x1="161.8657" x2="167.5053" y1="98.8905" y2="95.9364" /><line stroke="rgb(200,0,0)" stroke-linecap="round" stroke-width="4" x1="167.5053" x2="170.7279" y1="95.9364" y2="94.3251" /><line stroke="rgb(200,0,0)" stroke-linecap="round" stroke-width="4" x1="203.7597" x2="201.3428" y1="82.2403" y2="82.7774" /><line stroke="rgb(200,0,0)" stroke-linecap="round" stroke-width="4" x1="201.3428" x2="199.4629" y1="82.7774" y2="83.3145" /><line stroke="rgb(200,0,0)" stroke-linecap="round" stroke-width="4" x1="199.4629" x2="197.8516" y1="83.3145" y2="83.583" /><line stroke="rgb(200,0,0)" stroke-linecap="round" stroke-width="4" x1="280.8339" x2="284.5936" y1="93.5194" y2="97.0106" /><line stroke="rgb(200,0,0)" stroke-linecap="round" stroke-width="4" x1="284.5936" x2="288.3534" y1="97.0106" y2="100.7703" /><line stroke="rgb(200,0,0)" stroke-linecap="round" stroke-width="4" x1="288.3534" x2="289.4276" y1="100.7703" y2="101.8445" /><line stroke="rgb(200,0,0)" stroke-linecap="round" stroke-width="4" x1="289.4276" x2="293.7244" y1="101.8445" y2="106.4099" /><line stroke="rgb(200,0,0)" stroke-linecap="round" stroke-width="4" x1="293.7244" x2="302.0495" y1="106.4099" y2="115.5406" /><line stroke="rgb(200,0,0)" stroke-linecap="round" stroke-width="4" x1="302.0495" x2="305.8092" y1="115.5406" y2="120.106" /><line stroke="rgb(200,0,0)" stroke-linecap="round" stroke-width="4" x1="95.5336" x2="94.9965" y1="82.2403" y2="82.5088" /><line stroke="rgb(200,0,0)" stroke-linecap="round" stroke-width="4" x1="94.9965" x2="94.7279" y1="82.5088" y2="82.5088" /><line stroke="rgb(200,0,0)" stroke-linecap="round" stroke-width="4" x1="94.7279" x2="94.1908" y1="82.5088" y2="83.0459" /><line stroke="rgb(200,0,0)" stroke-linecap="round" stroke-width="4" x1="94.1908" x2="94.1908" y1="83.0459" y2="83.583" /><line stroke="rgb(200,0,0)" stroke-linecap="round" stroke-width="4" x1="94.1908" x2="94.1908" y1="83.583" y2="83.8516" /><line stroke="rgb(200,0,0)" stroke-linecap="round" stroke-width="4" x1="94.1908" x2="94.1908" y1="83.8516" y2="84.3887" /><line stroke="rgb(200,0,0)" stroke-linecap="round" stroke-width="4" x1="94.1908" x2="94.7279" y1="84.3887" y2="84.9258" /><line stroke="rgb(200,0,0)" stroke-linecap="round" stroke-width="4" x1="94.7279" x2="94.9965" y1="84.9258" y2="85.1943" /><line stroke="rgb(200,0,0)" stroke-linecap="round" stroke-width="4" x1="94.9965" x2="95.5336" y1="85.1943" y2="85.1943" /><line stroke="rgb(200,0,0)" stroke-linecap="round" stroke-width="4" x1="95.5336" x2="96.0707" y1="85.1943" y2="85.1943" /><line stroke="rgb(200,0,0)" stroke-linecap="round" stroke-width="4" x1="96.0707" x2="96.6078" y1="85.1943" y2="84.6572" /><line stroke="rgb(200,0,0)" stroke-linecap="round" stroke-width="4" x1="96.6078" x2="96.8763" y1="84.6572" y2="84.1201" /><line stroke="rgb(200,0,0)" stroke-linecap="round" stroke-width="4" x1="96.8763" x2="97.1449" y1="84.1201" y2="83.8516" /><line stroke="rgb(200,0,0)" stroke-linecap="round" stroke-width="4" x1="97.1449" x2="97.1449" y1="83.8516" y2="83.583" /><line stroke="rgb(200,0,0)" stroke-linecap="round" stroke-width="4" x1="305.8092" x2="299.6325" y1="120.106" y2="119.5689" /><line stroke="rgb(200,0,0)" stroke-linecap="round" stroke-width="4" x1="299.6325" x2="293.9929" y1="119.5689" y2="119.0318" /><line stroke="rgb(200,0,0)" stroke-linecap="round" stroke-width="4" x1="293.9929" x2="291.3074" y1="119.0318" y2="118.4947" /><line stroke="rgb(200,0,0)" stroke-linecap="round" stroke-width="4" x1="291.3074" x2="289.4276" y1="118.4947" y2="118.2261" /><line stroke="rgb(200,0,0)" stroke-linecap="round" stroke-width="4" x1="289.4276" x2="287.5477" y1="118.2261" y2="117.9576" /><line stroke="rgb(200,0,0)" stroke-linecap="round" stroke-width="4" x1="287.5477" x2="285.6678" y1="117.9576" y2="117.4205" /><line stroke="rgb(200,0,0)" stroke-linecap="round" stroke-width="4" x1="285.6678" x2="277.8799" y1="117.4205" y2="115.2721" /><line stroke="rgb(200,0,0)" stroke-linecap="round" stroke-width="4" x1="277.8799" x2="273.8516" y1="115.2721" y2="113.9293" /><line stroke="rgb(200,0,0)" stroke-linecap="round" stroke-width="4" x1="273.8516" x2="270.3604" y1="113.9293" y2="112.5866" /><line stroke="rgb(200,0,0)" stroke-linecap="round" stroke-width="4" x1="270.3604" x2="267.1378" y1="112.5866" y2="110.9753" /><line stroke="rgb(200,0,0)" stroke-linecap="round" stroke-width="4" x1="267.1378" x2="264.9894" y1="110.9753" y2="110.1696" /><line stroke="rgb(200,0,0)" stroke-linecap="round" stroke-width="4" x1="264.9894" x2="260.1555" y1="110.1696" y2="107.4841" /><line stroke="rgb(200,0,0)" stroke-linecap="round" stroke-width="4" x1="260.1555" x2="257.7385" y1="107.4841" y2="106.4099" /><line stroke="rgb(200,0,0)" stroke-linecap="round" stroke-width="4" x1="257.7385" x2="254.7845" y1="106.4099" y2="105.0671" /><line stroke="rgb(200,0,0)" stroke-linecap="round" stroke-width="4" x1="254.7845" x2="252.636" y1="105.0671" y2="104.2615" /><line stroke="rgb(200,0,0)" stroke-linecap="round" stroke-width="4" x1="252.636" x2="250.4876" y1="104.2615" y2="103.4558" /><line stroke="rgb(200,0,0)" stroke-linecap="round" stroke-width="4" x1="250.4876" x2="247.5336" y1="103.4558" y2="102.9187" /><line stroke="rgb(200,0,0)" stroke-linecap="round" stroke-width="4" x1="247.5336" x2="244.8481" y1="102.9187" y2="102.6502" /><line stroke="rgb(200,0,0)" stroke-linecap="round" stroke-width="4" x1="244.8481" x2="239.7456" y1="102.6502" y2="101.3074" /><line stroke="rgb(200,0,0)" stroke-linecap="round" stroke-width="4" x1="239.7456" x2="235.9859" y1="101.3074" y2="99.9647" /><line stroke="rgb(200,0,0)" stroke-linecap="round" stroke-width="4" x1="235.9859" x2="233.3004" y1="99.9647" y2="98.6219" /><line stroke="rgb(200,0,0)" stroke-linecap="round" stroke-width="4" x1="233.3004" x2="232.4947" y1="98.6219" y2="98.0848" /><line stroke="rgb(200,0,0)" stroke-linecap="round" stroke-width="4" x1="232.4947" x2="231.9576" y1="98.0848" y2="98.0848" /><line stroke="rgb(200,0,0)" stroke-linecap="round" stroke-width="4" x1="231.9576" x2="230.0777" y1="98.0848" y2="96.742" /><line stroke="rgb(200,0,0)" stroke-linecap="round" stroke-width="4" x1="97.1449" x2="98.2191" y1="83.583" y2="83.0459" /><line stroke="rgb(200,0,0)" stroke-linecap="round" stroke-width="4" x1="98.2191" x2="100.636" y1="83.0459" y2="82.5088" /><line stroke="rgb(200,0,0)" stroke-linecap="round" stroke-width="4" x1="100.636" x2="107.6184" y1="82.5088" y2="80.8975" /><line stroke="rgb(200,0,0)" stroke-linecap="round" stroke-width="4" x1="107.6184" x2="120.7774" y1="80.8975" y2="77.6749" /><line stroke="rgb(200,0,0)" stroke-linecap="round" stroke-width="4" x1="120.7774" x2="123.7314" y1="77.6749" y2="76.8693" /><line stroke="rgb(200,0,0)" stroke-linecap="round" stroke-width="4" x1="123.7314" x2="127.2226" y1="76.8693" y2="76.3322" /><line stroke="rgb(200,0,0)" stroke-linecap="round" stroke-width="4" x1="127.2226" x2="128.8339" y1="76.3322" y2="76.3322" /><line stroke="rgb(200,0,0)" stroke-linecap="round" stroke-width="4" x1="128.8339" x2="130.4452" y1="76.3322" y2="76.0636" /><line stroke="rgb(200,0,0)" stroke-linecap="round" stroke-width="4" x1="130.4452" x2="133.9364" y1="76.0636" y2="76.6007" /><line stroke="rgb(200,0,0)" stroke-linecap="round" stroke-width="4" x1="133.9364" x2="136.3534" y1="76.6007" y2="76.8693" /><line stroke="rgb(200,0,0)" stroke-linecap="round" stroke-width="4" x1="136.3534" x2="138.2332" y1="76.8693" y2="77.6749" /><line stroke="rgb(200,0,0)" stroke-linecap="round" stroke-width="4" x1="138.2332" x2="142.53" y1="77.6749" y2="79.5548" /><line stroke="rgb(200,0,0)" stroke-linecap="round" stroke-width="4" x1="142.53" x2="147.364" y1="79.5548" y2="81.9717" /><line stroke="rgb(200,0,0)" stroke-linecap="round" stroke-width="4" x1="147.364" x2="149.7809" y1="81.9717" y2="83.3145" /><line stroke="rgb(200,0,0)" stroke-linecap="round" stroke-width="4" x1="149.7809" x2="152.1979" y1="83.3145" y2="84.1201" /><line stroke="rgb(200,0,0)" stroke-linecap="round" stroke-width="4" x1="152.1979" x2="155.689" y1="84.1201" y2="84.9258" /><line stroke="rgb(200,0,0)" stroke-linecap="round" stroke-width="4" x1="155.689" x2="159.1802" y1="84.9258" y2="85.1943" /><line stroke="rgb(200,0,0)" stroke-linecap="round" stroke-width="4" x1="159.1802" x2="159.4488" y1="85.1943" y2="85.1943" /><line stroke="rgb(200,0,0)" stroke-linecap="round" stroke-width="4" x1="159.4488" x2="165.0883" y1="85.1943" y2="85.7314" /><line stroke="rgb(200,0,0)" stroke-linecap="round" stroke-width="4" x1="165.0883" x2="168.0424" y1="85.7314" y2="85.4629" /><line stroke="rgb(200,0,0)" stroke-linecap="round" stroke-width="4" x1="168.0424" x2="169.9223" y1="85.4629" y2="86.0" /><line stroke="rgb(200,0,0)" stroke-linecap="round" stroke-width="4" x1="169.9223" x2="171.265" y1="86.0" y2="87.0742" /><line stroke="rgb(200,0,0)" stroke-linecap="round" stroke-width="4" x1="171.265" x2="172.0707" y1="87.0742" y2="88.417" /><line stroke="rgb(200,0,0)" stroke-linecap="round" stroke-width="4" x1="129.371" x2="130.9823" y1="10.0" y2="10.5371" /><line stroke="rgb(200,0,0)" stroke-linecap="round" stroke-width="4" x1="130.9823" x2="131.5194" y1="10.5371" y2="10.8057" /><line stroke="rgb(200,0,0)" stroke-linecap="round" stroke-width="4" x1="131.5194" x2="133.6678" y1="10.8057" y2="11.8799" /><line stroke="rgb(200,0,0)" stroke-linecap="round" stroke-width="4" x1="133.6678" x2="138.5018" y1="11.8799" y2="14.0283" /><line stroke="rgb(200,0,0)" stroke-linecap="round" stroke-width="4" x1="241.894" x2="241.0883" y1="309.1661" y2="308.629" /><line stroke="rgb(200,0,0)" stroke-linecap="round" stroke-width="4" x1="241.0883" x2="240.0141" y1="308.629" y2="308.0919" /><line stroke="rgb(200,0,0)" stroke-linecap="round" stroke-width="4" x1="240.0141" x2="238.9399" y1="308.0919" y2="307.5548" /><line stroke="rgb(200,0,0)" stroke-linecap="round" stroke-width="4" x1="238.9399" x2="233.8375" y1="307.5548" y2="306.4806" /><line stroke="rgb(200,0,0)" stroke-linecap="round" stroke-width="4" x1="233.8375" x2="231.689" y1="306.4806" y2="305.9435" /><line stroke="rgb(200,0,0)" stroke-linecap="round" stroke-width="4" x1="231.689" x2="227.3922" y1="305.9435" y2="304.8693" /><line stroke="rgb(200,0,0)" stroke-linecap="round" stroke-width="4" x1="227.3922" x2="224.1696" y1="304.8693" y2="303.7951" /><line stroke="rgb(200,0,0)" stroke-linecap="round" stroke-width="4" x1="224.1696" x2="220.4099" y1="303.7951" y2="301.9152" /><line stroke="rgb(200,0,0)" stroke-linecap="round" stroke-width="4" x1="220.4099" x2="217.4558" y1="301.9152" y2="300.0353" /><line stroke="rgb(200,0,0)" stroke-linecap="round" stroke-width="4" x1="217.4558" x2="216.3816" y1="300.0353" y2="298.9611" /><line stroke="rgb(200,0,0)" stroke-linecap="round" stroke-width="4" x1="216.3816" x2="215.3074" y1="298.9611" y2="297.8869" /><line stroke="rgb(200,0,0)" stroke-linecap="round" stroke-width="4" x1="215.3074" x2="213.4276" y1="297.8869" y2="295.7385" /><line stroke="rgb(200,0,0)" stroke-linecap="round" stroke-width="4" x1="213.4276" x2="212.0848" y1="295.7385" y2="294.1272" /><line stroke="rgb(200,0,0)" stroke-linecap="round" stroke-width="4" x1="212.0848" x2="211.0106" y1="294.1272" y2="292.2473" /><line stroke="rgb(200,0,0)" stroke-linecap="round" stroke-width="4" x1="211.0106" x2="209.6678" y1="292.2473" y2="289.2933" /><line stroke="rgb(200,0,0)" stroke-linecap="round" stroke-width="4" x1="209.6678" x2="208.3251" y1="289.2933" y2="286.3392" /><line stroke="rgb(200,0,0)" stroke-linecap="round" stroke-width="4" x1="208.3251" x2="207.788" y1="286.3392" y2="284.4594" /><line stroke="rgb(200,0,0)" stroke-linecap="round" stroke-width="4" x1="207.788" x2="205.371" y1="284.4594" y2="277.7456" /><line stroke="rgb(200,0,0)" stroke-linecap="round" stroke-width="4" x1="205.371" x2="203.2226" y1="277.7456" y2="271.5689" /><line stroke="rgb(200,0,0)" stroke-linecap="round" stroke-width="4" x1="203.2226" x2="201.6113" y1="271.5689" y2="268.0777" /><line stroke="rgb(200,0,0)" stroke-linecap="round" stroke-width="4" x1="201.6113" x2="200.0" y1="268.0777" y2="265.1237" /><line stroke="rgb(200,0,0)" stroke-linecap="round" stroke-width="4" x1="200.0" x2="197.8516" y1="265.1237" y2="262.4382" /><line stroke="rgb(200,0,0)" stroke-linecap="round" stroke-width="4" x1="197.8516" x2="196.7774" y1="262.4382" y2="261.0954" /><line stroke="rgb(200,0,0)" stroke-linecap="round" stroke-width="4" x1="196.7774" x2="195.4346" y1="261.0954" y2="259.7527" /><line stroke="rgb(200,0,0)" stroke-linecap="round" stroke-width="4" x1="195.4346" x2="193.2862" y1="259.7527" y2="257.3357" /><line stroke="rgb(200,0,0)" stroke-linecap="round" stroke-width="4" x1="193.2862" x2="188.7208" y1="257.3357" y2="252.7703" /><line stroke="rgb(200,0,0)" stroke-linecap="round" stroke-width="4" x1="188.7208" x2="186.841" y1="252.7703" y2="250.6219" /><line stroke="rgb(200,0,0)" stroke-linecap="round" stroke-width="4" x1="186.841" x2="185.2297" y1="250.6219" y2="248.2049" /><line stroke="rgb(200,0,0)" stroke-linecap="round" stroke-width="4" x1="185.2297" x2="182.8127" y1="248.2049" y2="244.1767" /><line stroke="rgb(200,0,0)" stroke-linecap="round" stroke-width="4" x1="182.8127" x2="180.9329" y1="244.1767" y2="239.6113" /><line stroke="rgb(200,0,0)" stroke-linecap="round" stroke-width="4" x1="180.9329" x2="180.1272" y1="239.6113" y2="236.9258" /><line stroke="rgb(200,0,0)" stroke-linecap="round" stroke-width="4" x1="180.1272" x2="179.8587" y1="236.9258" y2="235.3145" /><line stroke="rgb(200,0,0)" stroke-linecap="round" stroke-width="4" x1="179.8587" x2="179.5901" y1="235.3145" y2="233.9717" /><line stroke="rgb(200,0,0)" stroke-linecap="round" stroke-width="4" x1="179.5901" x2="179.3216" y1="233.9717" y2="231.0177" /><line stroke="rgb(200,0,0)" stroke-linecap="round" stroke-width="4" x1="179.3216" x2="179.3216" y1="231.0177" y2="228.0636" /><line stroke="rgb(200,0,0)" stroke-linecap="round" stroke-width="4" x1="179.3216" x2="179.5901" y1="228.0636" y2="223.7668" /><line stroke="rgb(200,0,0)" stroke-linecap="round" stroke-width="4" x1="179.5901" x2="180.6643" y1="223.7668" y2="217.053" /><line stroke="rgb(200,0,0)" stroke-linecap="round" stroke-width="4" x1="180.6643" x2="181.47" y1="217.053" y2="213.0247" /><line stroke="rgb(200,0,0)" stroke-linecap="round" stroke-width="4" x1="181.47" x2="181.7385" y1="213.0247" y2="211.1449" /><line stroke="rgb(200,0,0)" stroke-linecap="round" stroke-width="4" x1="181.7385" x2="182.0071" y1="211.1449" y2="208.9965" /><line stroke="rgb(200,0,0)" stroke-linecap="round" stroke-width="4" x1="182.0071" x2="182.2756" y1="208.9965" y2="205.2367" /><line stroke="rgb(200,0,0)" stroke-linecap="round" stroke-width="4" x1="182.2756" x2="182.8127" y1="205.2367" y2="200.4028" /><line stroke="rgb(200,0,0)" stroke-linecap="round" stroke-width="4" x1="182.8127" x2="183.0813" y1="200.4028" y2="196.9117" /><line stroke="rgb(200,0,0)" stroke-linecap="round" stroke-width="4" x1="183.0813" x2="183.6184" y1="196.9117" y2="193.1519" /><line stroke="rgb(200,0,0)" stroke-linecap="round" stroke-width="4" x1="183.6184" x2="184.424" y1="193.1519" y2="188.318" /><line stroke="rgb(200,0,0)" stroke-linecap="round" stroke-width="4" x1="184.424" x2="186.841" y1="188.318" y2="177.8445" /><line stroke="rgb(200,0,0)" stroke-linecap="round" stroke-width="4" x1="186.841" x2="188.7208" y1="177.8445" y2="170.8622" /><line stroke="rgb(200,0,0)" stroke-linecap="round" stroke-width="4" x1="188.7208" x2="189.258" y1="170.8622" y2="169.2509" /><line stroke="rgb(200,0,0)" stroke-linecap="round" stroke-width="4" x1="189.258" x2="189.7951" y1="169.2509" y2="166.8339" /><line stroke="rgb(200,0,0)" stroke-linecap="round" stroke-width="4" x1="189.7951" x2="189.7951" y1="166.8339" y2="165.2226" /><line stroke="rgb(200,0,0)" stroke-linecap="round" stroke-width="4" x1="189.7951" x2="190.0636" y1="165.2226" y2="163.8799" /><line stroke="rgb(200,0,0)" stroke-linecap="round" stroke-width="4" x1="190.0636" x2="190.0636" y1="163.8799" y2="162.2686" /><line stroke="rgb(200,0,0)" stroke-linecap="round" stroke-width="4" x1="190.0636" x2="189.7951" y1="162.2686" y2="160.6572" /><line stroke="rgb(200,0,0)" stroke-linecap="round" stroke-width="4" x1="189.7951" x2="189.258" y1="160.6572" y2="159.0459" /><line stroke="rgb(200,0,0)" stroke-linecap="round" stroke-width="4" x1="189.258" x2="189.258" y1="159.0459" y2="158.5088" /><line stroke="rgb(200,0,0)" stroke-linecap="round" stroke-width="4" x1="189.258" x2="188.9894" y1="158.5088" y2="157.9717" /><line stroke="rgb(200,0,0)" stroke-linecap="round" stroke-width="4" x1="265.5265" x2="274.9258" y1="388.9258" y2="390.0" /><line stroke="rgb(200,0,0)" stroke-linecap="round" stroke-width="4" x1="274.9258" x2="275.1943" y1="390.0" y2="387.8516" /><line stroke="rgb(200,0,0)" stroke-linecap="round" stroke-width="4" x1="275.1943" x2="274.9258" y1="387.8516" y2="380.6007" /><line stroke="rgb(200,0,0)" stroke-linecap="round" stroke-width="4" x1="274.9258" x2="274.9258" y1="380.6007" y2="377.1095" /><line stroke="rgb(200,0,0)" stroke-linecap="round" stroke-width="4" x1="274.9258" x2="274.6572" y1="377.1095" y2="374.9611" /><line stroke="rgb(200,0,0)" stroke-linecap="round" stroke-width="4" x1="274.6572" x2="274.6572" y1="374.9611" y2="373.3498" /><line stroke="rgb(200,0,0)" stroke-linecap="round" stroke-width="4" x1="274.6572" x2="274.3887" y1="373.3498" y2="372.0071" /><line stroke="rgb(200,0,0)" stroke-linecap="round" stroke-width="4" x1="274.3887" x2="274.3887" y1="372.0071" y2="370.6643" /><line stroke="rgb(200,0,0)" stroke-linecap="round" stroke-width="4" x1="274.3887" x2="274.3887" y1="370.6643" y2="369.053" /><line stroke="rgb(200,0,0)" stroke-linecap="round" stroke-width="4" x1="274.3887" x2="273.3145" y1="369.053" y2="363.4134" /><line stroke="rgb(200,0,0)" stroke-linecap="round" stroke-width="4" x1="273.3145" x2="273.3145" y1="363.4134" y2="361.8021" /><line stroke="rgb(200,0,0)" stroke-linecap="round" stroke-width="4" x1="273.3145" x2="273.0459" y1="361.8021" y2="360.7279" /><line stroke="rgb(200,0,0)" stroke-linecap="round" stroke-width="4" x1="273.0459" x2="272.2403" y1="360.7279" y2="355.3569" /><line stroke="rgb(200,0,0)" stroke-linecap="round" stroke-width="4" x1="272.2403" x2="271.4346" y1="355.3569" y2="351.5972" /><line stroke="rgb(200,0,0)" stroke-linecap="round" stroke-width="4" x1="271.4346" x2="270.8975" y1="351.5972" y2="348.6431" /><line stroke="rgb(200,0,0)" stroke-linecap="round" stroke-width="4" x1="270.8975" x2="270.629" y1="348.6431" y2="347.3004" /><line stroke="rgb(200,0,0)" stroke-linecap="round" stroke-width="4" x1="270.629" x2="270.3604" y1="347.3004" y2="345.689" /><line stroke="rgb(200,0,0)" stroke-linecap="round" stroke-width="4" x1="270.3604" x2="269.8233" y1="345.689" y2="343.5406" /><line stroke="rgb(200,0,0)" stroke-linecap="round" stroke-width="4" x1="269.8233" x2="269.2862" y1="343.5406" y2="342.735" /><line stroke="rgb(200,0,0)" stroke-linecap="round" stroke-width="4" x1="269.2862" x2="269.2862" y1="342.735" y2="341.9293" /><line stroke="rgb(200,0,0)" stroke-linecap="round" stroke-width="4" x1="269.2862" x2="268.7491" y1="341.9293" y2="341.1237" /><line stroke="rgb(200,0,0)" stroke-linecap="round" stroke-width="4" x1="268.7491" x2="268.212" y1="341.1237" y2="340.318" /><line stroke="rgb(200,0,0)" stroke-linecap="round" stroke-width="4" x1="268.212" x2="267.6749" y1="340.318" y2="339.5124" /><line stroke="rgb(200,0,0)" stroke-linecap="round" stroke-width="4" x1="267.6749" x2="266.8693" y1="339.5124" y2="338.4382" /><line stroke="rgb(200,0,0)" stroke-linecap="round" stroke-width="4" x1="266.8693" x2="265.7951" y1="338.4382" y2="337.6325" /><line stroke="rgb(200,0,0)" stroke-linecap="round" stroke-width="4" x1="265.7951" x2="264.7208" y1="337.6325" y2="337.0954" /><line stroke="rgb(200,0,0)" stroke-linecap="round" stroke-width="4" x1="122.6572" x2="124.2686" y1="24.7703" y2="21.2792" /><line stroke="rgb(200,0,0)" stroke-linecap="round" stroke-width="4" x1="124.2686" x2="125.0742" y1="21.2792" y2="19.9364" /><line stroke="rgb(200,0,0)" stroke-linecap="round" stroke-width="4" x1="125.0742" x2="127.2226" y1="19.9364" y2="15.1025" /><line stroke="rgb(200,0,0)" stroke-linecap="round" stroke-width="4" x1="127.2226" x2="128.5654" y1="15.1025" y2="11.8799" /><line stroke="rgb(200,0,0)" stroke-linecap="round" stroke-width="4" x1="128.5654" x2="129.371" y1="11.8799" y2="10.0" /><line stroke="rgb(200,0,0)" stroke-linecap="round" stroke-width="4" x1="138.5018" x2="139.8445" y1="14.0283" y2="14.8339" /><line stroke="rgb(200,0,0)" stroke-linecap="round" stroke-width="4" x1="139.8445" x2="141.9929" y1="14.8339" y2="15.9081" /><line stroke="rgb(200,0,0)" stroke-linecap="round" stroke-width="4" x1="141.9929" x2="146.5583" y1="15.9081" y2="18.3251" /><line stroke="rgb(200,0,0)" stroke-linecap="round" stroke-width="4" x1="146.5583" x2="151.9293" y1="18.3251" y2="21.8163" /><line stroke="rgb(200,0,0)" stroke-linecap="round" stroke-width="4" x1="151.9293" x2="162.4028" y1="21.8163" y2="29.6042" /><line stroke="rgb(200,0,0)" stroke-linecap="round" stroke-width="4" x1="162.4028" x2="166.4311" y1="29.6042" y2="32.5583" /><line stroke="rgb(200,0,0)" stroke-linecap="round" stroke-width="4" x1="166.4311" x2="167.2367" y1="32.5583" y2="33.0954" /><line stroke="rgb(200,0,0)" stroke-linecap="round" stroke-width="4" x1="167.2367" x2="168.5795" y1="33.0954" y2="34.1696" /><line stroke="rgb(200,0,0)" stroke-linecap="round" stroke-width="4" x1="168.5795" x2="169.6537" y1="34.1696" y2="34.9753" /><line stroke="rgb(200,0,0)" stroke-linecap="round" stroke-width="4" x1="169.6537" x2="176.0989" y1="34.9753" y2="39.8092" /><line stroke="rgb(200,0,0)" stroke-linecap="round" stroke-width="4" x1="176.0989" x2="179.053" y1="39.8092" y2="41.9576" /><line stroke="rgb(200,0,0)" stroke-linecap="round" stroke-width="4" x1="179.053" x2="195.4346" y1="41.9576" y2="50.8198" /><line stroke="rgb(200,0,0)" stroke-linecap="round" stroke-width="4" x1="195.4346" x2="198.3887" y1="50.8198" y2="52.1625" /><line stroke="rgb(200,0,0)" stroke-linecap="round" stroke-width="4" x1="198.3887" x2="213.159" y1="52.1625" y2="56.7279" /><line stroke="rgb(200,0,0)" stroke-linecap="round" stroke-width="4" x1="213.159" x2="223.364" y1="56.7279" y2="59.682" /><line stroke="rgb(200,0,0)" stroke-linecap="round" stroke-width="4" x1="227.9293" x2="238.6714" y1="377.3781" y2="383.0177" /><line stroke="rgb(200,0,0)" stroke-linecap="round" stroke-width="4" x1="238.6714" x2="241.894" y1="383.0177" y2="384.629" /><line stroke="rgb(200,0,0)" stroke-linecap="round" stroke-width="4" x1="241.894" x2="245.6537" y1="384.629" y2="385.7032" /><line stroke="rgb(200,0,0)" stroke-linecap="round" stroke-width="4" x1="245.6537" x2="250.4876" y1="385.7032" y2="386.7774" /><line stroke="rgb(200,0,0)" stroke-linecap="round" stroke-width="4" x1="250.4876" x2="254.2473" y1="386.7774" y2="387.583" /><line stroke="rgb(200,0,0)" stroke-linecap="round" stroke-width="4" x1="254.2473" x2="259.3498" y1="387.583" y2="388.3887" /><line stroke="rgb(200,0,0)" stroke-linecap="round" stroke-width="4" x1="259.3498" x2="265.5265" y1="388.3887" y2="388.9258" /><line stroke="rgb(200,0,0)" stroke-linecap="round" stroke-width="4" x1="188.9894" x2="187.9152" y1="157.9717" y2="155.5548" /><line stroke="rgb(200,0,0)" stroke-linecap="round" stroke-width="4" x1="187.9152" x2="186.841" y1="155.5548" y2="153.6749" /><line stroke="rgb(200,0,0)" stroke-linecap="round" stroke-width="4" x1="186.841" x2="185.7668" y1="153.6749" y2="151.5265" /><line stroke="rgb(200,0,0)" stroke-linecap="round" stroke-width="4" x1="264.7208" x2="263.3781" y1="337.0954" y2="336.8269" /><line stroke="rgb(200,0,0)" stroke-linecap="round" stroke-width="4" x1="263.3781" x2="261.7668" y1="336.8269" y2="336.5583" /><line stroke="rgb(200,0,0)" stroke-linecap="round" stroke-width="4" x1="261.7668" x2="258.8127" y1="336.5583" y2="336.0212" /><line stroke="rgb(200,0,0)" stroke-linecap="round" stroke-width="4" x1="258.8127" x2="256.3958" y1="336.0212" y2="335.2155" /><line stroke="rgb(200,0,0)" stroke-linecap="round" stroke-width="4" x1="256.3958" x2="255.5901" y1="335.2155" y2="335.2155" /><line stroke="rgb(200,0,0)" stroke-linecap="round" stroke-width="4" x1="255.5901" x2="254.7845" y1="335.2155" y2="334.947" /><line stroke="rgb(200,0,0)" stroke-linecap="round" stroke-width="4" x1="254.7845" x2="253.9788" y1="334.947" y2="334.6784" /><line stroke="rgb(200,0,0)" stroke-linecap="round" stroke-width="4" x1="253.9788" x2="253.1731" y1="334.6784" y2="334.1413" /><line stroke="rgb(200,0,0)" stroke-linecap="round" stroke-width="4" x1="253.1731" x2="252.0989" y1="334.1413" y2="333.3357" /></svg>