<?xml version="1.0" encoding="utf-8" ?>
<svg baseProfile="tiny" height="400" version="1.2" width="400" xmlns="http://www.w3.org/2000/svg" xmlns:ev="http://www.w3.org/2001/xml-events" xmlns:xlink="http://www.w3.org/1999/xlink"><defs /><line stroke="rgb(200,0,0)" stroke-linecap="round" stroke-width="4" x1="62.7192" x2="70.5216" y1="194.6226" y2="195.8879" /><line stroke="rgb(200,0,0)" stroke-linecap="round" stroke-width="4" x1="121.343" x2="120.2886" y1="177.3307" y2="176.6981" /><line stroke="rgb(200,0,0)" stroke-linecap="round" stroke-width="4" x1="120.2886" x2="117.9689" y1="176.6981" y2="175.6437" /><line stroke="rgb(200,0,0)" stroke-linecap="round" stroke-width="4" x1="302.697" x2="303.5405" y1="129.4617" y2="128.6182" /><line stroke="rgb(200,0,0)" stroke-linecap="round" stroke-width="4" x1="303.5405" x2="303.9623" y1="128.6182" y2="127.5638" /><line stroke="rgb(200,0,0)" stroke-linecap="round" stroke-width="4" x1="232.0533" x2="233.9512" y1="133.4684" y2="131.9922" /><line stroke="rgb(200,0,0)" stroke-linecap="round" stroke-width="4" x1="233.9512" x2="234.3729" y1="131.9922" y2="130.5161" /><line stroke="rgb(200,0,0)" stroke-linecap="round" stroke-width="4" x1="234.3729" x2="235.6382" y1="130.5161" y2="125.455" /><line stroke="rgb(200,0,0)" stroke-linecap="round" stroke-width="4" x1="168.5794" x2="177.4362" y1="111.9589" y2="115.1221" /><line stroke="rgb(200,0,0)" stroke-linecap="round" stroke-width="4" x1="177.4362" x2="186.293" y1="115.1221" y2="118.0744" /><line stroke="rgb(200,0,0)" stroke-linecap="round" stroke-width="4" x1="186.293" x2="232.0533" y1="118.0744" y2="133.4684" /><line stroke="rgb(200,0,0)" stroke-linecap="round" stroke-width="4" x1="302.697" x2="303.5405" y1="125.2442" y2="124.1898" /><line stroke="rgb(200,0,0)" stroke-linecap="round" stroke-width="4" x1="303.5405" x2="307.1254" y1="124.1898" y2="119.9723" /><line stroke="rgb(200,0,0)" stroke-linecap="round" stroke-width="4" x1="307.1254" x2="324.2064" y1="119.9723" y2="97.1976" /><line stroke="rgb(200,0,0)" stroke-linecap="round" stroke-width="4" x1="324.2064" x2="337.9134" y1="97.1976" y2="80.3274" /><line stroke="rgb(200,0,0)" stroke-linecap="round" stroke-width="4" x1="337.9134" x2="340.0222" y1="80.3274" y2="74.4229" /><line stroke="rgb(200,0,0)" stroke-linecap="round" stroke-width="4" x1="340.0222" x2="341.2875" y1="74.4229" y2="64.7225" /><line stroke="rgb(200,0,0)" stroke-linecap="round" stroke-width="4" x1="341.2875" x2="342.3418" y1="64.7225" y2="51.0155" /><line stroke="rgb(200,0,0)" stroke-linecap="round" stroke-width="4" x1="342.3418" x2="342.7636" y1="51.0155" y2="48.0633" /><line stroke="rgb(200,0,0)" stroke-linecap="round" stroke-width="4" x1="10.0" x2="13.1632" y1="374.7114" y2="376.8202" /><line stroke="rgb(200,0,0)" stroke-linecap="round" stroke-width="4" x1="13.1632" x2="15.4828" y1="376.8202" y2="378.5072" /><line stroke="rgb(200,0,0)" stroke-linecap="round" stroke-width="4" x1="15.4828" x2="16.7481" y1="378.5072" y2="378.929" /><line stroke="rgb(200,0,0)" stroke-linecap="round" stroke-width="4" x1="16.7481" x2="17.5916" y1="378.929" y2="379.1398" /><line stroke="rgb(200,0,0)" stroke-linecap="round" stroke-width="4" x1="17.5916" x2="20.5438" y1="379.1398" y2="379.1398" /><line stroke="rgb(200,0,0)" stroke-linecap="round" stroke-width="4" x1="20.5438" x2="22.4417" y1="379.1398" y2="378.929" /><line stroke="rgb(200,0,0)" stroke-linecap="round" stroke-width="4" x1="22.4417" x2="23.707" y1="378.929" y2="378.5072" /><line stroke="rgb(200,0,0)" stroke-linecap="round" stroke-width="4" x1="20.333" x2="20.7547" y1="338.2297" y2="339.0733" /><line stroke="rgb(200,0,0)" stroke-linecap="round" stroke-width="4" x1="20.7547" x2="21.3873" y1="339.0733" y2="343.5017" /><line stroke="rgb(200,0,0)" stroke-linecap="round" stroke-width="4" x1="21.3873" x2="21.5982" y1="343.5017" y2="346.4539" /><line stroke="rgb(200,0,0)" stroke-linecap="round" stroke-width="4" x1="21.5982" x2="22.2309" y1="346.4539" y2="350.6715" /><line stroke="rgb(200,0,0)" stroke-linecap="round" stroke-width="4" x1="22.2309" x2="22.8635" y1="350.6715" y2="354.2564" /><line stroke="rgb(200,0,0)" stroke-linecap="round" stroke-width="4" x1="22.8635" x2="23.4961" y1="354.2564" y2="359.1065" /><line stroke="rgb(200,0,0)" stroke-linecap="round" stroke-width="4" x1="23.4961" x2="24.1287" y1="359.1065" y2="367.5416" /><line stroke="rgb(200,0,0)" stroke-linecap="round" stroke-width="4" x1="24.1287" x2="24.1287" y1="367.5416" y2="374.2897" /><line stroke="rgb(200,0,0)" stroke-linecap="round" stroke-width="4" x1="24.1287" x2="23.707" y1="374.2897" y2="378.5072" /><line stroke="rgb(200,0,0)" stroke-linecap="round" stroke-width="4" x1="390.4218" x2="385.3607" y1="24.2342" y2="23.8124" /><line stroke="rgb(200,0,0)" stroke-linecap="round" stroke-width="4" x1="385.3607" x2="384.5172" y1="23.8124" y2="23.8124" /><line stroke="rgb(200,0,0)" stroke-linecap="round" stroke-width="4" x1="384.5172" x2="379.667" y1="23.8124" y2="23.3907" /><line stroke="rgb(200,0,0)" stroke-linecap="round" stroke-width="4" x1="379.667" x2="375.2386" y1="23.3907" y2="22.9689" /><line stroke="rgb(200,0,0)" stroke-linecap="round" stroke-width="4" x1="375.2386" x2="372.919" y1="22.9689" y2="22.758" /><line stroke="rgb(200,0,0)" stroke-linecap="round" stroke-width="4" x1="372.919" x2="363.6404" y1="22.758" y2="22.1254" /><line stroke="rgb(200,0,0)" stroke-linecap="round" stroke-width="4" x1="363.6404" x2="361.3208" y1="22.1254" y2="21.9145" /><line stroke="rgb(200,0,0)" stroke-linecap="round" stroke-width="4" x1="361.3208" x2="359.4229" y1="21.9145" y2="21.7037" /><line stroke="rgb(200,0,0)" stroke-linecap="round" stroke-width="4" x1="359.4229" x2="356.6815" y1="21.7037" y2="21.4928" /><line stroke="rgb(200,0,0)" stroke-linecap="round" stroke-width="4" x1="356.6815" x2="354.3618" y1="21.4928" y2="21.4928" /><line stroke="rgb(200,0,0)" stroke-linecap="round" stroke-width="4" x1="354.3618" x2="352.0422" y1="21.4928" y2="21.2819" /><line stroke="rgb(200,0,0)" stroke-linecap="round" stroke-width="4" x1="352.0422" x2="346.9811" y1="21.2819" y2="20.8602" /><line stroke="rgb(200,0,0)" stroke-linecap="round" stroke-width="4" x1="346.9811" x2="346.7703" y1="20.8602" y2="20.8602" /><line stroke="rgb(200,0,0)" stroke-linecap="round" stroke-width="4" x1="346.7703" x2="345.0832" y1="20.8602" y2="20.8602" /><line stroke="rgb(200,0,0)" stroke-linecap="round" stroke-width="4" x1="235.6382" x2="236.2708" y1="125.455" y2="125.455" /><line stroke="rgb(200,0,0)" stroke-linecap="round" stroke-width="4" x1="236.2708" x2="237.1143" y1="125.455" y2="125.2442" /><line stroke="rgb(200,0,0)" stroke-linecap="round" stroke-width="4" x1="237.1143" x2="237.7469" y1="125.2442" y2="124.6115" /><line stroke="rgb(200,0,0)" stroke-linecap="round" stroke-width="4" x1="237.7469" x2="238.3796" y1="124.6115" y2="123.9789" /><line stroke="rgb(200,0,0)" stroke-linecap="round" stroke-width="4" x1="238.3796" x2="238.3796" y1="123.9789" y2="123.1354" /><line stroke="rgb(200,0,0)" stroke-linecap="round" stroke-width="4" x1="238.3796" x2="238.3796" y1="123.1354" y2="122.2919" /><line stroke="rgb(200,0,0)" stroke-linecap="round" stroke-width="4" x1="238.3796" x2="237.9578" y1="122.2919" y2="121.6593" /><line stroke="rgb(200,0,0)" stroke-linecap="round" stroke-width="4" x1="237.9578" x2="237.5361" y1="121.6593" y2="121.2375" /><line stroke="rgb(200,0,0)" stroke-linecap="round" stroke-width="4" x1="237.5361" x2="236.6926" y1="121.2375" y2="121.0266" /><line stroke="rgb(200,0,0)" stroke-linecap="round" stroke-width="4" x1="236.6926" x2="235.6382" y1="121.0266" y2="120.8158" /><line stroke="rgb(200,0,0)" stroke-linecap="round" stroke-width="4" x1="235.6382" x2="235.0055" y1="120.8158" y2="121.2375" /><line stroke="rgb(200,0,0)" stroke-linecap="round" stroke-width="4" x1="235.0055" x2="234.3729" y1="121.2375" y2="121.6593" /><line stroke="rgb(200,0,0)" stroke-linecap="round" stroke-width="4" x1="234.3729" x2="234.162" y1="121.6593" y2="122.081" /><line stroke="rgb(200,0,0)" stroke-linecap="round" stroke-width="4" x1="234.162" x2="233.9512" y1="122.081" y2="122.9245" /><line stroke="rgb(200,0,0)" stroke-linecap="round" stroke-width="4" x1="233.9512" x2="233.9512" y1="122.9245" y2="123.5572" /><line stroke="rgb(200,0,0)" stroke-linecap="round" stroke-width="4" x1="233.9512" x2="233.9512" y1="123.5572" y2="123.9789" /><line stroke="rgb(200,0,0)" stroke-linecap="round" stroke-width="4" x1="233.9512" x2="234.3729" y1="123.9789" y2="124.6115" /><line stroke="rgb(200,0,0)" stroke-linecap="round" stroke-width="4" x1="234.3729" x2="235.0055" y1="124.6115" y2="125.2442" /><line stroke="rgb(200,0,0)" stroke-linecap="round" stroke-width="4" x1="235.0055" x2="235.6382" y1="125.2442" y2="125.455" /><line stroke="rgb(200,0,0)" stroke-linecap="round" stroke-width="4" x1="245.5494" x2="247.869" y1="121.0266" y2="120.8158" /><line stroke="rgb(200,0,0)" stroke-linecap="round" stroke-width="4" x1="247.869" x2="257.5694" y1="120.8158" y2="121.0266" /><line stroke="rgb(200,0,0)" stroke-linecap="round" stroke-width="4" x1="257.5694" x2="268.9567" y1="121.0266" y2="121.8701" /><line stroke="rgb(200,0,0)" stroke-linecap="round" stroke-width="4" x1="268.9567" x2="278.4462" y1="121.8701" y2="122.5028" /><line stroke="rgb(200,0,0)" stroke-linecap="round" stroke-width="4" x1="278.4462" x2="287.0921" y1="122.5028" y2="122.9245" /><line stroke="rgb(200,0,0)" stroke-linecap="round" stroke-width="4" x1="287.0921" x2="291.3097" y1="122.9245" y2="123.5572" /><line stroke="rgb(200,0,0)" stroke-linecap="round" stroke-width="4" x1="291.3097" x2="295.1054" y1="123.5572" y2="124.8224" /><line stroke="rgb(200,0,0)" stroke-linecap="round" stroke-width="4" x1="295.1054" x2="298.0577" y1="124.8224" y2="125.8768" /><line stroke="rgb(200,0,0)" stroke-linecap="round" stroke-width="4" x1="298.0577" x2="299.5339" y1="125.8768" y2="126.2986" /><line stroke="rgb(200,0,0)" stroke-linecap="round" stroke-width="4" x1="390.4218" x2="390.0" y1="24.2342" y2="29.0844" /><line stroke="rgb(200,0,0)" stroke-linecap="round" stroke-width="4" x1="390.0" x2="389.5782" y1="29.0844" y2="34.9889" /><line stroke="rgb(200,0,0)" stroke-linecap="round" stroke-width="4" x1="389.5782" x2="389.3674" y1="34.9889" y2="35.1998" /><line stroke="rgb(200,0,0)" stroke-linecap="round" stroke-width="4" x1="389.3674" x2="387.6804" y1="35.1998" y2="39.8391" /><line stroke="rgb(200,0,0)" stroke-linecap="round" stroke-width="4" x1="387.6804" x2="387.0477" y1="39.8391" y2="41.737" /><line stroke="rgb(200,0,0)" stroke-linecap="round" stroke-width="4" x1="387.0477" x2="386.626" y1="41.737" y2="42.5805" /><line stroke="rgb(200,0,0)" stroke-linecap="round" stroke-width="4" x1="386.626" x2="385.9933" y1="42.5805" y2="44.4784" /><line stroke="rgb(200,0,0)" stroke-linecap="round" stroke-width="4" x1="385.9933" x2="385.5716" y1="44.4784" y2="45.5327" /><line stroke="rgb(200,0,0)" stroke-linecap="round" stroke-width="4" x1="385.5716" x2="384.3063" y1="45.5327" y2="49.5394" /><line stroke="rgb(200,0,0)" stroke-linecap="round" stroke-width="4" x1="384.3063" x2="383.6737" y1="49.5394" y2="56.9201" /><line stroke="rgb(200,0,0)" stroke-linecap="round" stroke-width="4" x1="121.343" x2="122.8191" y1="177.3307" y2="175.6437" /><line stroke="rgb(200,0,0)" stroke-linecap="round" stroke-width="4" x1="122.8191" x2="122.8191" y1="175.6437" y2="175.4329" /><line stroke="rgb(200,0,0)" stroke-linecap="round" stroke-width="4" x1="122.8191" x2="123.6626" y1="175.4329" y2="174.5893" /><line stroke="rgb(200,0,0)" stroke-linecap="round" stroke-width="4" x1="123.6626" x2="124.717" y1="174.5893" y2="173.535" /><line stroke="rgb(200,0,0)" stroke-linecap="round" stroke-width="4" x1="124.717" x2="125.3496" y1="173.535" y2="172.6915" /><line stroke="rgb(200,0,0)" stroke-linecap="round" stroke-width="4" x1="125.3496" x2="125.7714" y1="172.6915" y2="171.6371" /><line stroke="rgb(200,0,0)" stroke-linecap="round" stroke-width="4" x1="125.7714" x2="126.1931" y1="171.6371" y2="170.1609" /><line stroke="rgb(200,0,0)" stroke-linecap="round" stroke-width="4" x1="126.1931" x2="126.6149" y1="170.1609" y2="167.6304" /><line stroke="rgb(200,0,0)" stroke-linecap="round" stroke-width="4" x1="126.6149" x2="127.2475" y1="167.6304" y2="164.889" /><line stroke="rgb(200,0,0)" stroke-linecap="round" stroke-width="4" x1="127.2475" x2="127.6693" y1="164.889" y2="163.6238" /><line stroke="rgb(200,0,0)" stroke-linecap="round" stroke-width="4" x1="127.6693" x2="128.3019" y1="163.6238" y2="162.7802" /><line stroke="rgb(200,0,0)" stroke-linecap="round" stroke-width="4" x1="128.3019" x2="129.778" y1="162.7802" y2="161.3041" /><line stroke="rgb(200,0,0)" stroke-linecap="round" stroke-width="4" x1="129.778" x2="131.6759" y1="161.3041" y2="159.828" /><line stroke="rgb(200,0,0)" stroke-linecap="round" stroke-width="4" x1="131.6759" x2="133.5738" y1="159.828" y2="158.5627" /><line stroke="rgb(200,0,0)" stroke-linecap="round" stroke-width="4" x1="133.5738" x2="135.4717" y1="158.5627" y2="157.9301" /><line stroke="rgb(200,0,0)" stroke-linecap="round" stroke-width="4" x1="93.5072" x2="95.1942" y1="210.8602" y2="210.8602" /><line stroke="rgb(200,0,0)" stroke-linecap="round" stroke-width="4" x1="95.1942" x2="95.8269" y1="210.8602" y2="210.0166" /><line stroke="rgb(200,0,0)" stroke-linecap="round" stroke-width="4" x1="95.8269" x2="96.2486" y1="210.0166" y2="209.384" /><line stroke="rgb(200,0,0)" stroke-linecap="round" stroke-width="4" x1="342.7636" x2="344.8724" y1="48.0633" y2="23.8124" /><line stroke="rgb(200,0,0)" stroke-linecap="round" stroke-width="4" x1="344.8724" x2="345.0832" y1="23.8124" y2="20.8602" /><line stroke="rgb(200,0,0)" stroke-linecap="round" stroke-width="4" x1="117.9689" x2="117.1254" y1="175.6437" y2="175.222" /><line stroke="rgb(200,0,0)" stroke-linecap="round" stroke-width="4" x1="117.1254" x2="116.4928" y1="175.222" y2="175.0111" /><line stroke="rgb(200,0,0)" stroke-linecap="round" stroke-width="4" x1="116.4928" x2="115.8602" y1="175.0111" y2="174.5893" /><line stroke="rgb(200,0,0)" stroke-linecap="round" stroke-width="4" x1="115.8602" x2="115.0166" y1="174.5893" y2="174.1676" /><line stroke="rgb(200,0,0)" stroke-linecap="round" stroke-width="4" x1="115.0166" x2="113.7514" y1="174.1676" y2="173.535" /><line stroke="rgb(200,0,0)" stroke-linecap="round" stroke-width="4" x1="113.7514" x2="113.1188" y1="173.535" y2="173.1132" /><line stroke="rgb(200,0,0)" stroke-linecap="round" stroke-width="4" x1="113.1188" x2="111.8535" y1="173.1132" y2="172.4806" /><line stroke="rgb(200,0,0)" stroke-linecap="round" stroke-width="4" x1="111.8535" x2="104.8946" y1="172.4806" y2="168.263" /><line stroke="rgb(200,0,0)" stroke-linecap="round" stroke-width="4" x1="104.8946" x2="100.0444" y1="168.263" y2="165.5216" /><line stroke="rgb(200,0,0)" stroke-linecap="round" stroke-width="4" x1="100.0444" x2="98.99" y1="165.5216" y2="164.6781" /><line stroke="rgb(200,0,0)" stroke-linecap="round" stroke-width="4" x1="98.99" x2="95.4051" y1="164.6781" y2="162.5694" /><line stroke="rgb(200,0,0)" stroke-linecap="round" stroke-width="4" x1="95.4051" x2="90.9767" y1="162.5694" y2="159.828" /><line stroke="rgb(200,0,0)" stroke-linecap="round" stroke-width="4" x1="90.9767" x2="86.5483" y1="159.828" y2="157.2974" /><line stroke="rgb(200,0,0)" stroke-linecap="round" stroke-width="4" x1="86.5483" x2="78.535" y1="157.2974" y2="154.9778" /><line stroke="rgb(200,0,0)" stroke-linecap="round" stroke-width="4" x1="78.535" x2="75.3718" y1="154.9778" y2="163.202" /><line stroke="rgb(200,0,0)" stroke-linecap="round" stroke-width="4" x1="75.3718" x2="74.3174" y1="163.202" y2="166.3651" /><line stroke="rgb(200,0,0)" stroke-linecap="round" stroke-width="4" x1="74.3174" x2="71.576" y1="166.3651" y2="172.6915" /><line stroke="rgb(200,0,0)" stroke-linecap="round" stroke-width="4" x1="71.576" x2="68.8346" y1="172.6915" y2="177.1199" /><line stroke="rgb(200,0,0)" stroke-linecap="round" stroke-width="4" x1="68.8346" x2="68.4129" y1="177.1199" y2="177.9634" /><line stroke="rgb(200,0,0)" stroke-linecap="round" stroke-width="4" x1="68.4129" x2="67.9911" y1="177.9634" y2="179.0178" /><line stroke="rgb(200,0,0)" stroke-linecap="round" stroke-width="4" x1="67.9911" x2="66.515" y1="179.0178" y2="181.97" /><line stroke="rgb(200,0,0)" stroke-linecap="round" stroke-width="4" x1="66.515" x2="65.8824" y1="181.97" y2="183.657" /><line stroke="rgb(200,0,0)" stroke-linecap="round" stroke-width="4" x1="65.8824" x2="65.0388" y1="183.657" y2="186.3984" /><line stroke="rgb(200,0,0)" stroke-linecap="round" stroke-width="4" x1="65.0388" x2="62.7192" y1="186.3984" y2="194.6226" /><line stroke="rgb(200,0,0)" stroke-linecap="round" stroke-width="4" x1="20.333" x2="15.061" y1="338.2297" y2="342.4473" /><line stroke="rgb(200,0,0)" stroke-linecap="round" stroke-width="4" x1="15.061" x2="13.1632" y1="342.4473" y2="344.3452" /><line stroke="rgb(200,0,0)" stroke-linecap="round" stroke-width="4" x1="13.1632" x2="12.3196" y1="344.3452" y2="346.0322" /><line stroke="rgb(200,0,0)" stroke-linecap="round" stroke-width="4" x1="12.3196" x2="11.687" y1="346.0322" y2="347.7192" /><line stroke="rgb(200,0,0)" stroke-linecap="round" stroke-width="4" x1="11.687" x2="11.4761" y1="347.7192" y2="349.1953" /><line stroke="rgb(200,0,0)" stroke-linecap="round" stroke-width="4" x1="11.4761" x2="11.8979" y1="349.1953" y2="352.1476" /><line stroke="rgb(200,0,0)" stroke-linecap="round" stroke-width="4" x1="11.8979" x2="12.1088" y1="352.1476" y2="354.0455" /><line stroke="rgb(200,0,0)" stroke-linecap="round" stroke-width="4" x1="12.1088" x2="12.1088" y1="354.0455" y2="355.5216" /><line stroke="rgb(200,0,0)" stroke-linecap="round" stroke-width="4" x1="12.1088" x2="11.687" y1="355.5216" y2="359.7392" /><line stroke="rgb(200,0,0)" stroke-linecap="round" stroke-width="4" x1="11.687" x2="11.2653" y1="359.7392" y2="363.7458" /><line stroke="rgb(200,0,0)" stroke-linecap="round" stroke-width="4" x1="11.2653" x2="10.8435" y1="363.7458" y2="369.0178" /><line stroke="rgb(200,0,0)" stroke-linecap="round" stroke-width="4" x1="383.6737" x2="374.3951" y1="56.9201" y2="56.0766" /><line stroke="rgb(200,0,0)" stroke-linecap="round" stroke-width="4" x1="374.3951" x2="372.2863" y1="56.0766" y2="55.444" /><line stroke="rgb(200,0,0)" stroke-linecap="round" stroke-width="4" x1="372.2863" x2="367.8579" y1="55.444" y2="53.7569" /><line stroke="rgb(200,0,0)" stroke-linecap="round" stroke-width="4" x1="367.8579" x2="365.3274" y1="53.7569" y2="52.7026" /><line stroke="rgb(200,0,0)" stroke-linecap="round" stroke-width="4" x1="365.3274" x2="361.9534" y1="52.7026" y2="51.4373" /><line stroke="rgb(200,0,0)" stroke-linecap="round" stroke-width="4" x1="361.9534" x2="361.1099" y1="51.4373" y2="51.2264" /><line stroke="rgb(200,0,0)" stroke-linecap="round" stroke-width="4" x1="361.1099" x2="359.8446" y1="51.2264" y2="50.5938" /><line stroke="rgb(200,0,0)" stroke-linecap="round" stroke-width="4" x1="359.8446" x2="357.525" y1="50.5938" y2="49.7503" /><line stroke="rgb(200,0,0)" stroke-linecap="round" stroke-width="4" x1="357.525" x2="353.9401" y1="49.7503" y2="49.3285" /><line stroke="rgb(200,0,0)" stroke-linecap="round" stroke-width="4" x1="353.9401" x2="353.5183" y1="49.3285" y2="49.3285" /><line stroke="rgb(200,0,0)" stroke-linecap="round" stroke-width="4" x1="353.5183" x2="344.2397" y1="49.3285" y2="48.2741" /><line stroke="rgb(200,0,0)" stroke-linecap="round" stroke-width="4" x1="344.2397" x2="342.7636" y1="48.2741" y2="48.0633" /><line stroke="rgb(200,0,0)" stroke-linecap="round" stroke-width="4" x1="93.2963" x2="95.1942" y1="207.4861" y2="208.7514" /><line stroke="rgb(200,0,0)" stroke-linecap="round" stroke-width="4" x1="93.2963" x2="93.5072" y1="207.4861" y2="210.8602" /><line stroke="rgb(200,0,0)" stroke-linecap="round" stroke-width="4" x1="10.8435" x2="10.6326" y1="369.0178" y2="373.0244" /><line stroke="rgb(200,0,0)" stroke-linecap="round" stroke-width="4" x1="10.6326" x2="10.0" y1="373.0244" y2="374.7114" /><line stroke="rgb(200,0,0)" stroke-linecap="round" stroke-width="4" x1="63.7736" x2="63.7736" y1="218.6626" y2="222.6693" /><line stroke="rgb(200,0,0)" stroke-linecap="round" stroke-width="4" x1="63.7736" x2="63.7736" y1="222.6693" y2="222.8801" /><line stroke="rgb(200,0,0)" stroke-linecap="round" stroke-width="4" x1="63.7736" x2="63.3518" y1="222.8801" y2="225.4107" /><line stroke="rgb(200,0,0)" stroke-linecap="round" stroke-width="4" x1="63.3518" x2="61.6648" y1="225.4107" y2="231.3152" /><line stroke="rgb(200,0,0)" stroke-linecap="round" stroke-width="4" x1="62.7192" x2="62.0866" y1="194.6226" y2="199.0511" /><line stroke="rgb(200,0,0)" stroke-linecap="round" stroke-width="4" x1="62.0866" x2="62.0866" y1="199.0511" y2="200.7381" /><line stroke="rgb(200,0,0)" stroke-linecap="round" stroke-width="4" x1="62.0866" x2="62.5083" y1="200.7381" y2="203.9012" /><line stroke="rgb(200,0,0)" stroke-linecap="round" stroke-width="4" x1="62.5083" x2="63.5627" y1="203.9012" y2="213.1798" /><line stroke="rgb(200,0,0)" stroke-linecap="round" stroke-width="4" x1="63.5627" x2="63.7736" y1="213.1798" y2="218.6626" /><line stroke="rgb(200,0,0)" stroke-linecap="round" stroke-width="4" x1="135.4717" x2="139.0566" y1="157.9301" y2="156.2431" /><line stroke="rgb(200,0,0)" stroke-linecap="round" stroke-width="4" x1="139.0566" x2="140.7436" y1="156.2431" y2="155.1887" /><line stroke="rgb(200,0,0)" stroke-linecap="round" stroke-width="4" x1="140.7436" x2="142.2198" y1="155.1887" y2="153.7125" /><line stroke="rgb(200,0,0)" stroke-linecap="round" stroke-width="4" x1="142.2198" x2="143.9068" y1="153.7125" y2="151.182" /><line stroke="rgb(200,0,0)" stroke-linecap="round" stroke-width="4" x1="143.9068" x2="147.2808" y1="151.182" y2="144.8557" /><line stroke="rgb(200,0,0)" stroke-linecap="round" stroke-width="4" x1="147.2808" x2="148.3352" y1="144.8557" y2="142.5361" /><line stroke="rgb(200,0,0)" stroke-linecap="round" stroke-width="4" x1="148.3352" x2="151.2875" y1="142.5361" y2="138.5294" /><line stroke="rgb(200,0,0)" stroke-linecap="round" stroke-width="4" x1="151.2875" x2="152.7636" y1="138.5294" y2="136.8424" /><line stroke="rgb(200,0,0)" stroke-linecap="round" stroke-width="4" x1="152.7636" x2="155.2941" y1="136.8424" y2="134.3119" /><line stroke="rgb(200,0,0)" stroke-linecap="round" stroke-width="4" x1="155.2941" x2="159.7225" y1="134.3119" y2="130.3052" /><line stroke="rgb(200,0,0)" stroke-linecap="round" stroke-width="4" x1="159.7225" x2="161.4095" y1="130.3052" y2="128.1964" /><line stroke="rgb(200,0,0)" stroke-linecap="round" stroke-width="4" x1="161.4095" x2="162.6748" y1="128.1964" y2="125.8768" /><line stroke="rgb(200,0,0)" stroke-linecap="round" stroke-width="4" x1="162.6748" x2="163.5183" y1="125.8768" y2="124.4007" /><line stroke="rgb(200,0,0)" stroke-linecap="round" stroke-width="4" x1="168.5794" x2="168.3685" y1="111.9589" y2="112.8024" /><line stroke="rgb(200,0,0)" stroke-linecap="round" stroke-width="4" x1="168.3685" x2="167.525" y1="112.8024" y2="115.7547" /><line stroke="rgb(200,0,0)" stroke-linecap="round" stroke-width="4" x1="167.525" x2="166.4706" y1="115.7547" y2="119.7614" /><line stroke="rgb(200,0,0)" stroke-linecap="round" stroke-width="4" x1="166.4706" x2="165.6271" y1="119.7614" y2="121.8701" /><line stroke="rgb(200,0,0)" stroke-linecap="round" stroke-width="4" x1="165.6271" x2="164.7836" y1="121.8701" y2="123.1354" /><line stroke="rgb(200,0,0)" stroke-linecap="round" stroke-width="4" x1="164.7836" x2="163.5183" y1="123.1354" y2="124.4007" /><line stroke="rgb(200,0,0)" stroke-linecap="round" stroke-width="4" x1="40.9989" x2="38.6792" y1="287.6193" y2="294.1565" /><line stroke="rgb(200,0,0)" stroke-linecap="round" stroke-width="4" x1="38.6792" x2="35.3052" y1="294.1565" y2="302.3807" /><line stroke="rgb(200,0,0)" stroke-linecap="round" stroke-width="4" x1="35.3052" x2="34.04" y1="302.3807" y2="304.4895" /><line stroke="rgb(200,0,0)" stroke-linecap="round" stroke-width="4" x1="34.04" x2="32.5638" y1="304.4895" y2="307.02" /><line stroke="rgb(200,0,0)" stroke-linecap="round" stroke-width="4" x1="32.5638" x2="27.9245" y1="307.02" y2="314.8224" /><line stroke="rgb(200,0,0)" stroke-linecap="round" stroke-width="4" x1="27.9245" x2="26.4484" y1="314.8224" y2="318.4073" /><line stroke="rgb(200,0,0)" stroke-linecap="round" stroke-width="4" x1="26.4484" x2="24.9723" y1="318.4073" y2="322.2031" /><line stroke="rgb(200,0,0)" stroke-linecap="round" stroke-width="4" x1="24.9723" x2="23.2852" y1="322.2031" y2="331.9034" /><line stroke="rgb(200,0,0)" stroke-linecap="round" stroke-width="4" x1="23.2852" x2="23.0744" y1="331.9034" y2="333.8013" /><line stroke="rgb(200,0,0)" stroke-linecap="round" stroke-width="4" x1="23.0744" x2="21.8091" y1="333.8013" y2="336.5427" /><line stroke="rgb(200,0,0)" stroke-linecap="round" stroke-width="4" x1="21.8091" x2="20.333" y1="336.5427" y2="338.2297" /><line stroke="rgb(200,0,0)" stroke-linecap="round" stroke-width="4" x1="61.6648" x2="57.869" y1="231.3152" y2="242.4917" /><line stroke="rgb(200,0,0)" stroke-linecap="round" stroke-width="4" x1="57.869" x2="54.7059" y1="242.4917" y2="253.0355" /><line stroke="rgb(200,0,0)" stroke-linecap="round" stroke-width="4" x1="54.7059" x2="54.0733" y1="253.0355" y2="254.9334" /><line stroke="rgb(200,0,0)" stroke-linecap="round" stroke-width="4" x1="54.0733" x2="51.9645" y1="254.9334" y2="261.6815" /><line stroke="rgb(200,0,0)" stroke-linecap="round" stroke-width="4" x1="51.9645" x2="47.9578" y1="261.6815" y2="270.5383" /><line stroke="rgb(200,0,0)" stroke-linecap="round" stroke-width="4" x1="47.9578" x2="45.2164" y1="270.5383" y2="276.6537" /><line stroke="rgb(200,0,0)" stroke-linecap="round" stroke-width="4" x1="45.2164" x2="42.475" y1="276.6537" y2="283.6127" /><line stroke="rgb(200,0,0)" stroke-linecap="round" stroke-width="4" x1="42.475" x2="40.9989" y1="283.6127" y2="287.6193" /><line stroke="rgb(200,0,0)" stroke-linecap="round" stroke-width="4" x1="303.9623" x2="303.9623" y1="127.5638" y2="126.7203" /><line stroke="rgb(200,0,0)" stroke-linecap="round" stroke-width="4" x1="303.9623" x2="303.7514" y1="126.7203" y2="126.2986" /><line stroke="rgb(200,0,0)" stroke-linecap="round" stroke-width="4" x1="303.7514" x2="303.3296" y1="126.2986" y2="125.6659" /><line stroke="rgb(200,0,0)" stroke-linecap="round" stroke-width="4" x1="303.3296" x2="302.697" y1="125.6659" y2="125.2442" /><line stroke="rgb(200,0,0)" stroke-linecap="round" stroke-width="4" x1="302.697" x2="302.0644" y1="125.2442" y2="125.0333" /><line stroke="rgb(200,0,0)" stroke-linecap="round" stroke-width="4" x1="302.0644" x2="301.4317" y1="125.0333" y2="125.0333" /><line stroke="rgb(200,0,0)" stroke-linecap="round" stroke-width="4" x1="301.4317" x2="300.3774" y1="125.0333" y2="125.455" /><line stroke="rgb(200,0,0)" stroke-linecap="round" stroke-width="4" x1="300.3774" x2="299.7447" y1="125.455" y2="126.0877" /><line stroke="rgb(200,0,0)" stroke-linecap="round" stroke-width="4" x1="299.7447" x2="299.5339" y1="126.0877" y2="126.2986" /><line stroke="rgb(200,0,0)" stroke-linecap="round" stroke-width="4" x1="299.5339" x2="299.323" y1="126.2986" y2="127.1421" /><line stroke="rgb(200,0,0)" stroke-linecap="round" stroke-width="4" x1="299.323" x2="299.323" y1="127.1421" y2="127.7747" /><line stroke="rgb(200,0,0)" stroke-linecap="round" stroke-width="4" x1="299.323" x2="299.7447" y1="127.7747" y2="128.4073" /><line stroke="rgb(200,0,0)" stroke-linecap="round" stroke-width="4" x1="299.7447" x2="299.9556" y1="128.4073" y2="128.8291" /><line stroke="rgb(200,0,0)" stroke-linecap="round" stroke-width="4" x1="299.9556" x2="300.5882" y1="128.8291" y2="129.2508" /><line stroke="rgb(200,0,0)" stroke-linecap="round" stroke-width="4" x1="300.5882" x2="301.2209" y1="129.2508" y2="129.6726" /><line stroke="rgb(200,0,0)" stroke-linecap="round" stroke-width="4" x1="301.2209" x2="302.0644" y1="129.6726" y2="129.6726" /><line stroke="rgb(200,0,0)" stroke-linecap="round" stroke-width="4" x1="302.0644" x2="302.697" y1="129.6726" y2="129.4617" /><line stroke="rgb(200,0,0)" stroke-linecap="round" stroke-width="4" x1="238.3796" x2="239.8557" y1="122.2919" y2="121.8701" /><line stroke="rgb(200,0,0)" stroke-linecap="round" stroke-width="4" x1="239.8557" x2="242.808" y1="121.8701" y2="121.4484" /><line stroke="rgb(200,0,0)" stroke-linecap="round" stroke-width="4" x1="242.808" x2="245.5494" y1="121.4484" y2="121.0266" /><line stroke="rgb(200,0,0)" stroke-linecap="round" stroke-width="4" x1="70.5216" x2="73.263" y1="195.8879" y2="196.3097" /><line stroke="rgb(200,0,0)" stroke-linecap="round" stroke-width="4" x1="73.263" x2="76.8479" y1="196.3097" y2="197.1532" /><line stroke="rgb(200,0,0)" stroke-linecap="round" stroke-width="4" x1="76.8479" x2="80.0111" y1="197.1532" y2="198.4184" /><line stroke="rgb(200,0,0)" stroke-linecap="round" stroke-width="4" x1="80.0111" x2="82.1199" y1="198.4184" y2="199.2619" /><line stroke="rgb(200,0,0)" stroke-linecap="round" stroke-width="4" x1="82.1199" x2="85.283" y1="199.2619" y2="201.1598" /><line stroke="rgb(200,0,0)" stroke-linecap="round" stroke-width="4" x1="85.283" x2="89.5006" y1="201.1598" y2="204.323" /><line stroke="rgb(200,0,0)" stroke-linecap="round" stroke-width="4" x1="89.5006" x2="91.1876" y1="204.323" y2="205.7991" /><line stroke="rgb(200,0,0)" stroke-linecap="round" stroke-width="4" x1="91.1876" x2="93.2963" y1="205.7991" y2="207.4861" /><line stroke="rgb(200,0,0)" stroke-linecap="round" stroke-width="4" x1="95.1942" x2="96.2486" y1="208.7514" y2="209.384" /></svg>